<?xml version="1.0" encoding="UTF-8"?>
<svg xmlns="http://www.w3.org/2000/svg" xmlns:xlink="http://www.w3.org/1999/xlink" width="298.617pt" height="149.807pt" viewBox="0 0 298.617 149.807" version="1.1">
<defs>
<g>
<symbol overflow="visible" id="glyph0-0">
<path style="stroke:none;" d=""/>
</symbol>
<symbol overflow="visible" id="glyph0-1">
<path style="stroke:none;" d="M 7.1875 -3.375 C 7.1875 -5.40625 5.6875 -7.03125 3.875 -7.03125 C 2.078125 -7.03125 0.5625 -5.4375 0.5625 -3.375 C 0.5625 -1.328125 2.09375 0.21875 3.875 0.21875 C 5.6875 0.21875 7.1875 -1.359375 7.1875 -3.375 Z M 3.875 -0.046875 C 2.921875 -0.046875 1.578125 -0.921875 1.578125 -3.515625 C 1.578125 -6.09375 3.046875 -6.78125 3.875 -6.78125 C 4.734375 -6.78125 6.15625 -6.078125 6.15625 -3.515625 C 6.15625 -0.875 4.796875 -0.046875 3.875 -0.046875 Z M 3.875 -0.046875 "/>
</symbol>
<symbol overflow="visible" id="glyph1-0">
<path style="stroke:none;" d=""/>
</symbol>
<symbol overflow="visible" id="glyph1-1">
<path style="stroke:none;" d="M 2.328125 -4.4375 C 2.328125 -4.625 2.328125 -4.625 2.125 -4.625 C 1.671875 -4.1875 1.046875 -4.1875 0.765625 -4.1875 L 0.765625 -3.9375 C 0.921875 -3.9375 1.390625 -3.9375 1.765625 -4.125 L 1.765625 -0.578125 C 1.765625 -0.34375 1.765625 -0.25 1.078125 -0.25 L 0.8125 -0.25 L 0.8125 0 C 0.9375 0 1.796875 -0.03125 2.046875 -0.03125 C 2.265625 -0.03125 3.140625 0 3.296875 0 L 3.296875 -0.25 L 3.03125 -0.25 C 2.328125 -0.25 2.328125 -0.34375 2.328125 -0.578125 Z M 2.328125 -4.4375 "/>
</symbol>
<symbol overflow="visible" id="glyph1-2">
<path style="stroke:none;" d="M 3.515625 -1.265625 L 3.28125 -1.265625 C 3.265625 -1.109375 3.1875 -0.703125 3.09375 -0.640625 C 3.046875 -0.59375 2.515625 -0.59375 2.40625 -0.59375 L 1.125 -0.59375 C 1.859375 -1.234375 2.109375 -1.4375 2.515625 -1.765625 C 3.03125 -2.171875 3.515625 -2.609375 3.515625 -3.265625 C 3.515625 -4.109375 2.78125 -4.625 1.890625 -4.625 C 1.03125 -4.625 0.4375 -4.015625 0.4375 -3.375 C 0.4375 -3.03125 0.734375 -2.984375 0.8125 -2.984375 C 0.96875 -2.984375 1.171875 -3.109375 1.171875 -3.359375 C 1.171875 -3.484375 1.125 -3.734375 0.765625 -3.734375 C 0.984375 -4.21875 1.453125 -4.375 1.78125 -4.375 C 2.484375 -4.375 2.84375 -3.828125 2.84375 -3.265625 C 2.84375 -2.65625 2.40625 -2.1875 2.1875 -1.9375 L 0.515625 -0.265625 C 0.4375 -0.203125 0.4375 -0.1875 0.4375 0 L 3.3125 0 Z M 3.515625 -1.265625 "/>
</symbol>
</g>
<clipPath id="clip1">
  <path d="M 21 0 L 171 0 L 171 149.808594 L 21 149.808594 Z M 21 0 "/>
</clipPath>
<clipPath id="clip2">
  <path d="M 7 0 L 185 0 L 185 149.808594 L 7 149.808594 Z M 7 0 "/>
</clipPath>
<clipPath id="clip3">
  <path d="M 0 74 L 298.617188 74 L 298.617188 76 L 0 76 Z M 0 74 "/>
</clipPath>
<clipPath id="clip4">
  <path d="M 7 0 L 185 0 L 185 149.808594 L 7 149.808594 Z M 7 0 "/>
</clipPath>
</defs>
<g id="surface1">
<g clip-path="url(#clip1)" clip-rule="nonzero">
<path style=" stroke:none;fill-rule:nonzero;fill:rgb(100%,100%,100%);fill-opacity:1;" d="M 170.570313 74.902344 C 170.570313 33.808594 137.257813 0.496094 96.160156 0.496094 C 55.066406 0.496094 21.753906 33.808594 21.753906 74.902344 C 21.753906 115.996094 55.066406 149.308594 96.160156 149.308594 C 137.257813 149.308594 170.570313 115.996094 170.570313 74.902344 Z M 170.570313 74.902344 "/>
</g>
<g clip-path="url(#clip2)" clip-rule="nonzero">
<path style="fill:none;stroke-width:0.99628;stroke-linecap:butt;stroke-linejoin:miter;stroke:rgb(50%,50%,50%);stroke-opacity:1;stroke-miterlimit:10;" d="M 74.408313 0.00065625 C 74.408313 41.094406 41.095813 74.406906 -0.00184375 74.406906 C -41.095594 74.406906 -74.408094 41.094406 -74.408094 0.00065625 C -74.408094 -41.093094 -41.095594 -74.405594 -0.00184375 -74.405594 C 41.095813 -74.405594 74.408313 -41.093094 74.408313 0.00065625 Z M 74.408313 0.00065625 " transform="matrix(1,0,0,-1,96.162,74.903)"/>
</g>
<path style="fill-rule:nonzero;fill:rgb(100%,100%,100%);fill-opacity:1;stroke-width:0.99628;stroke-linecap:butt;stroke-linejoin:miter;stroke:rgb(50%,50%,50%);stroke-opacity:1;stroke-miterlimit:10;" d="M 165.818469 0.00065625 C 165.818469 32.875656 139.170031 59.524094 106.295031 59.524094 C 73.420031 59.524094 46.767688 32.875656 46.767688 0.00065625 C 46.767688 -32.874344 73.420031 -59.526687 106.295031 -59.526687 C 139.170031 -59.526687 165.818469 -32.874344 165.818469 0.00065625 Z M 165.818469 0.00065625 " transform="matrix(1,0,0,-1,96.162,74.903)"/>
<g clip-path="url(#clip3)" clip-rule="nonzero">
<path style="fill:none;stroke-width:0.99628;stroke-linecap:round;stroke-linejoin:miter;stroke:rgb(100%,0%,0%);stroke-opacity:1;stroke-miterlimit:10;" d="M -95.665906 0.00065625 L 201.959094 0.00065625 " transform="matrix(1,0,0,-1,96.162,74.903)"/>
</g>
<g clip-path="url(#clip4)" clip-rule="nonzero">
<path style="fill:none;stroke-width:0.99628;stroke-linecap:butt;stroke-linejoin:miter;stroke:rgb(0%,0%,0%);stroke-opacity:1;stroke-miterlimit:10;" d="M 74.408313 0.00065625 C 74.408313 41.094406 41.095813 74.406906 -0.00184375 74.406906 C -41.095594 74.406906 -74.408094 41.094406 -74.408094 0.00065625 C -74.408094 -41.093094 -41.095594 -74.405594 -0.00184375 -74.405594 C 41.095813 -74.405594 74.408313 -41.093094 74.408313 0.00065625 Z M 74.408313 0.00065625 " transform="matrix(1,0,0,-1,96.162,74.903)"/>
</g>
<path style="fill:none;stroke-width:0.99628;stroke-linecap:butt;stroke-linejoin:miter;stroke:rgb(0%,0%,0%);stroke-opacity:1;stroke-miterlimit:10;" d="M 165.818469 0.00065625 C 165.818469 32.875656 139.170031 59.524094 106.295031 59.524094 C 73.420031 59.524094 46.767688 32.875656 46.767688 0.00065625 C 46.767688 -32.874344 73.420031 -59.526687 106.295031 -59.526687 C 139.170031 -59.526687 165.818469 -32.874344 165.818469 0.00065625 Z M 165.818469 0.00065625 " transform="matrix(1,0,0,-1,96.162,74.903)"/>
<path style="fill-rule:nonzero;fill:rgb(0%,0%,0%);fill-opacity:1;stroke-width:0.3985;stroke-linecap:butt;stroke-linejoin:miter;stroke:rgb(0%,0%,0%);stroke-opacity:1;stroke-miterlimit:10;" d="M 1.49425 0.00065625 C 1.49425 0.824875 0.826281 1.492844 -0.00184375 1.492844 C -0.826062 1.492844 -1.494031 0.824875 -1.494031 0.00065625 C -1.494031 -0.823562 -0.826062 -1.495437 -0.00184375 -1.495437 C 0.826281 -1.495437 1.49425 -0.823562 1.49425 0.00065625 Z M 1.49425 0.00065625 " transform="matrix(1,0,0,-1,96.162,74.903)"/>
<path style="fill-rule:nonzero;fill:rgb(0%,0%,0%);fill-opacity:1;stroke-width:0.3985;stroke-linecap:butt;stroke-linejoin:miter;stroke:rgb(0%,0%,0%);stroke-opacity:1;stroke-miterlimit:10;" d="M 107.791125 0.00065625 C 107.791125 0.824875 107.11925 1.492844 106.295031 1.492844 C 105.470813 1.492844 104.798938 0.824875 104.798938 0.00065625 C 104.798938 -0.823562 105.470813 -1.495437 106.295031 -1.495437 C 107.11925 -1.495437 107.791125 -0.823562 107.791125 0.00065625 Z M 107.791125 0.00065625 " transform="matrix(1,0,0,-1,96.162,74.903)"/>
<g style="fill:rgb(0%,0%,0%);fill-opacity:1;">
  <use xlink:href="#glyph0-1" x="90.053" y="85.231"/>
</g>
<g style="fill:rgb(0%,0%,0%);fill-opacity:1;">
  <use xlink:href="#glyph1-1" x="97.801" y="86.725"/>
</g>
<g style="fill:rgb(0%,0%,0%);fill-opacity:1;">
  <use xlink:href="#glyph0-1" x="196.346" y="85.231"/>
</g>
<g style="fill:rgb(0%,0%,0%);fill-opacity:1;">
  <use xlink:href="#glyph1-2" x="204.095" y="86.725"/>
</g>
</g>
</svg>
