<?xml version="1.0" encoding="UTF-8"?>
<svg xmlns="http://www.w3.org/2000/svg" xmlns:xlink="http://www.w3.org/1999/xlink" width="402.53" height="392.664" viewBox="0 0 402.53 392.664">
<defs>
<g>
<g id="glyph-0-0">
<path d="M 2.265625 -3.15625 L 3.953125 -3.15625 C 5.140625 -3.15625 6.21875 -3.953125 6.21875 -4.953125 C 6.21875 -5.9375 5.234375 -6.8125 3.875 -6.8125 L 0.34375 -6.8125 L 0.34375 -6.5 L 0.59375 -6.5 C 1.359375 -6.5 1.375 -6.390625 1.375 -6.03125 L 1.375 -0.78125 C 1.375 -0.421875 1.359375 -0.3125 0.59375 -0.3125 L 0.34375 -0.3125 L 0.34375 0 C 0.703125 -0.03125 1.4375 -0.03125 1.8125 -0.03125 C 2.1875 -0.03125 2.9375 -0.03125 3.296875 0 L 3.296875 -0.3125 L 3.046875 -0.3125 C 2.28125 -0.3125 2.265625 -0.421875 2.265625 -0.78125 Z M 2.234375 -3.40625 L 2.234375 -6.09375 C 2.234375 -6.4375 2.25 -6.5 2.71875 -6.5 L 3.609375 -6.5 C 5.1875 -6.5 5.1875 -5.4375 5.1875 -4.953125 C 5.1875 -4.484375 5.1875 -3.40625 3.609375 -3.40625 Z M 2.234375 -3.40625 "/>
</g>
<g id="glyph-1-0">
<path d="M 2.328125 -4.4375 C 2.328125 -4.625 2.328125 -4.625 2.125 -4.625 C 1.671875 -4.1875 1.046875 -4.1875 0.765625 -4.1875 L 0.765625 -3.9375 C 0.921875 -3.9375 1.390625 -3.9375 1.765625 -4.125 L 1.765625 -0.578125 C 1.765625 -0.34375 1.765625 -0.25 1.078125 -0.25 L 0.8125 -0.25 L 0.8125 0 C 0.9375 0 1.796875 -0.03125 2.046875 -0.03125 C 2.265625 -0.03125 3.140625 0 3.296875 0 L 3.296875 -0.25 L 3.03125 -0.25 C 2.328125 -0.25 2.328125 -0.34375 2.328125 -0.578125 Z M 2.328125 -4.4375 "/>
</g>
<g id="glyph-1-1">
<path d="M 3.515625 -1.265625 L 3.28125 -1.265625 C 3.265625 -1.109375 3.1875 -0.703125 3.09375 -0.640625 C 3.046875 -0.59375 2.515625 -0.59375 2.40625 -0.59375 L 1.125 -0.59375 C 1.859375 -1.234375 2.109375 -1.4375 2.515625 -1.765625 C 3.03125 -2.171875 3.515625 -2.609375 3.515625 -3.265625 C 3.515625 -4.109375 2.78125 -4.625 1.890625 -4.625 C 1.03125 -4.625 0.4375 -4.015625 0.4375 -3.375 C 0.4375 -3.03125 0.734375 -2.984375 0.8125 -2.984375 C 0.96875 -2.984375 1.171875 -3.109375 1.171875 -3.359375 C 1.171875 -3.484375 1.125 -3.734375 0.765625 -3.734375 C 0.984375 -4.21875 1.453125 -4.375 1.78125 -4.375 C 2.484375 -4.375 2.84375 -3.828125 2.84375 -3.265625 C 2.84375 -2.65625 2.40625 -2.1875 2.1875 -1.9375 L 0.515625 -0.265625 C 0.4375 -0.203125 0.4375 -0.1875 0.4375 0 L 3.3125 0 Z M 3.515625 -1.265625 "/>
</g>
<g id="glyph-1-2">
<path d="M 3.59375 -2.21875 C 3.59375 -2.984375 3.5 -3.546875 3.1875 -4.03125 C 2.96875 -4.34375 2.53125 -4.625 1.984375 -4.625 C 0.359375 -4.625 0.359375 -2.71875 0.359375 -2.21875 C 0.359375 -1.71875 0.359375 0.140625 1.984375 0.140625 C 3.59375 0.140625 3.59375 -1.71875 3.59375 -2.21875 Z M 1.984375 -0.0625 C 1.65625 -0.0625 1.234375 -0.25 1.09375 -0.8125 C 1 -1.21875 1 -1.796875 1 -2.3125 C 1 -2.828125 1 -3.359375 1.09375 -3.734375 C 1.25 -4.28125 1.6875 -4.4375 1.984375 -4.4375 C 2.359375 -4.4375 2.71875 -4.203125 2.84375 -3.796875 C 2.953125 -3.421875 2.96875 -2.921875 2.96875 -2.3125 C 2.96875 -1.796875 2.96875 -1.28125 2.875 -0.84375 C 2.734375 -0.203125 2.265625 -0.0625 1.984375 -0.0625 Z M 1.984375 -0.0625 "/>
</g>
<g id="glyph-1-3">
<path d="M 2.90625 -2.078125 C 2.90625 -0.34375 2.0625 -0.078125 1.640625 -0.078125 C 1.484375 -0.078125 1.109375 -0.09375 0.921875 -0.3125 C 1.21875 -0.34375 1.234375 -0.578125 1.234375 -0.640625 C 1.234375 -0.8125 1.109375 -0.96875 0.90625 -0.96875 C 0.703125 -0.96875 0.578125 -0.828125 0.578125 -0.625 C 0.578125 -0.15625 0.96875 0.140625 1.640625 0.140625 C 2.640625 0.140625 3.578125 -0.796875 3.578125 -2.296875 C 3.578125 -4.015625 2.8125 -4.625 2 -4.625 C 1.765625 -4.625 1.296875 -4.59375 0.890625 -4.203125 C 0.65625 -3.96875 0.375 -3.703125 0.375 -3.078125 C 0.375 -2.1875 1.078125 -1.53125 1.890625 -1.53125 C 2.453125 -1.53125 2.75 -1.90625 2.90625 -2.21875 Z M 1.9375 -1.734375 C 1.65625 -1.734375 1.40625 -1.8125 1.203125 -2.140625 C 1.046875 -2.390625 1.046875 -2.6875 1.046875 -3.078125 C 1.046875 -3.484375 1.046875 -3.75 1.25 -4.03125 C 1.421875 -4.28125 1.640625 -4.421875 2 -4.421875 C 2.359375 -4.421875 2.578125 -4.203125 2.6875 -4.015625 C 2.875 -3.734375 2.890625 -3.234375 2.890625 -3 C 2.890625 -2.09375 2.375 -1.734375 1.9375 -1.734375 Z M 1.9375 -1.734375 "/>
</g>
<g id="glyph-1-4">
<path d="M 2.46875 -2.515625 C 3.015625 -2.78125 3.359375 -3.109375 3.359375 -3.59375 C 3.359375 -4.265625 2.65625 -4.625 1.984375 -4.625 C 1.21875 -4.625 0.59375 -4.125 0.59375 -3.46875 C 0.59375 -3.140625 0.75 -2.90625 0.875 -2.765625 C 1 -2.609375 1.046875 -2.578125 1.453125 -2.34375 C 1.0625 -2.171875 0.375 -1.796875 0.375 -1.0625 C 0.375 -0.296875 1.171875 0.140625 1.96875 0.140625 C 2.859375 0.140625 3.578125 -0.421875 3.578125 -1.171875 C 3.578125 -1.640625 3.3125 -2.03125 2.90625 -2.265625 C 2.8125 -2.328125 2.578125 -2.453125 2.46875 -2.515625 Z M 1.34375 -3.171875 C 1.15625 -3.28125 0.96875 -3.46875 0.96875 -3.734375 C 0.96875 -4.171875 1.46875 -4.421875 1.96875 -4.421875 C 2.515625 -4.421875 3 -4.078125 3 -3.59375 C 3 -2.96875 2.265625 -2.65625 2.265625 -2.65625 C 2.25 -2.65625 2.234375 -2.65625 2.1875 -2.6875 Z M 1.671875 -2.203125 L 2.640625 -1.65625 C 2.8125 -1.546875 3.15625 -1.34375 3.15625 -0.9375 C 3.15625 -0.40625 2.578125 -0.078125 1.984375 -0.078125 C 1.34375 -0.078125 0.796875 -0.5 0.796875 -1.0625 C 0.796875 -1.578125 1.171875 -1.984375 1.671875 -2.203125 Z M 1.671875 -2.203125 "/>
</g>
<g id="glyph-1-5">
<path d="M 3.734375 -4.203125 C 3.796875 -4.296875 3.796875 -4.3125 3.796875 -4.484375 L 1.96875 -4.484375 C 1.6875 -4.484375 1.609375 -4.5 1.359375 -4.515625 C 1 -4.546875 0.984375 -4.59375 0.96875 -4.703125 L 0.734375 -4.703125 L 0.484375 -3.21875 L 0.71875 -3.21875 C 0.734375 -3.328125 0.8125 -3.78125 0.921875 -3.859375 C 0.96875 -3.890625 1.546875 -3.890625 1.640625 -3.890625 L 3.15625 -3.890625 C 2.9375 -3.609375 2.578125 -3.171875 2.4375 -2.96875 C 1.53125 -1.78125 1.4375 -0.671875 1.4375 -0.265625 C 1.4375 -0.1875 1.4375 0.140625 1.765625 0.140625 C 2.109375 0.140625 2.109375 -0.171875 2.109375 -0.265625 L 2.109375 -0.546875 C 2.109375 -1.890625 2.390625 -2.515625 2.6875 -2.890625 Z M 3.734375 -4.203125 "/>
</g>
<g id="glyph-1-6">
<path d="M 1.046875 -2.28125 C 1.046875 -2.84375 1.09375 -3.359375 1.359375 -3.796875 C 1.59375 -4.171875 1.96875 -4.421875 2.421875 -4.421875 C 2.625 -4.421875 2.90625 -4.375 3.046875 -4.1875 C 2.875 -4.171875 2.71875 -4.046875 2.71875 -3.84375 C 2.71875 -3.671875 2.84375 -3.515625 3.046875 -3.515625 C 3.265625 -3.515625 3.390625 -3.65625 3.390625 -3.859375 C 3.390625 -4.265625 3.09375 -4.625 2.40625 -4.625 C 1.40625 -4.625 0.375 -3.703125 0.375 -2.203125 C 0.375 -0.40625 1.21875 0.140625 2 0.140625 C 2.84375 0.140625 3.578125 -0.515625 3.578125 -1.421875 C 3.578125 -2.3125 2.875 -2.96875 2.0625 -2.96875 C 1.5 -2.96875 1.203125 -2.59375 1.046875 -2.28125 Z M 2 -0.078125 C 1.640625 -0.078125 1.375 -0.28125 1.21875 -0.59375 C 1.125 -0.796875 1.0625 -1.15625 1.0625 -1.5625 C 1.0625 -2.25 1.46875 -2.765625 2.03125 -2.765625 C 2.34375 -2.765625 2.5625 -2.640625 2.734375 -2.390625 C 2.90625 -2.125 2.90625 -1.828125 2.90625 -1.421875 C 2.90625 -1.03125 2.90625 -0.734375 2.71875 -0.453125 C 2.5625 -0.21875 2.328125 -0.078125 2 -0.078125 Z M 2 -0.078125 "/>
</g>
<g id="glyph-1-7">
<path d="M 1.078125 -3.890625 C 1.4375 -3.796875 1.640625 -3.796875 1.75 -3.796875 C 2.671875 -3.796875 3.21875 -4.421875 3.21875 -4.53125 C 3.21875 -4.609375 3.171875 -4.625 3.140625 -4.625 C 3.125 -4.625 3.109375 -4.625 3.078125 -4.609375 C 2.90625 -4.546875 2.546875 -4.40625 2.03125 -4.40625 C 1.828125 -4.40625 1.46875 -4.421875 1.015625 -4.59375 C 0.9375 -4.625 0.921875 -4.625 0.921875 -4.625 C 0.828125 -4.625 0.828125 -4.546875 0.828125 -4.4375 L 0.828125 -2.390625 C 0.828125 -2.265625 0.828125 -2.1875 0.9375 -2.1875 C 1 -2.1875 1.015625 -2.1875 1.078125 -2.28125 C 1.375 -2.65625 1.8125 -2.71875 2.046875 -2.71875 C 2.46875 -2.71875 2.65625 -2.390625 2.6875 -2.328125 C 2.8125 -2.09375 2.859375 -1.828125 2.859375 -1.421875 C 2.859375 -1.21875 2.859375 -0.8125 2.640625 -0.5 C 2.46875 -0.25 2.171875 -0.078125 1.828125 -0.078125 C 1.375 -0.078125 0.90625 -0.328125 0.734375 -0.796875 C 1 -0.78125 1.140625 -0.953125 1.140625 -1.140625 C 1.140625 -1.4375 0.875 -1.484375 0.78125 -1.484375 C 0.78125 -1.484375 0.4375 -1.484375 0.4375 -1.109375 C 0.4375 -0.484375 1.015625 0.140625 1.84375 0.140625 C 2.734375 0.140625 3.515625 -0.515625 3.515625 -1.40625 C 3.515625 -2.1875 2.921875 -2.90625 2.0625 -2.90625 C 1.75 -2.90625 1.390625 -2.84375 1.078125 -2.578125 Z M 1.078125 -3.890625 "/>
</g>
<g id="glyph-1-8">
<path d="M 3.6875 -1.140625 L 3.6875 -1.390625 L 2.90625 -1.390625 L 2.90625 -4.5 C 2.90625 -4.640625 2.90625 -4.703125 2.765625 -4.703125 C 2.671875 -4.703125 2.640625 -4.703125 2.578125 -4.59375 L 0.265625 -1.390625 L 0.265625 -1.140625 L 2.328125 -1.140625 L 2.328125 -0.578125 C 2.328125 -0.328125 2.328125 -0.25 1.75 -0.25 L 1.5625 -0.25 L 1.5625 0 C 1.921875 -0.015625 2.359375 -0.03125 2.609375 -0.03125 C 2.875 -0.03125 3.3125 -0.015625 3.671875 0 L 3.671875 -0.25 L 3.484375 -0.25 C 2.90625 -0.25 2.90625 -0.328125 2.90625 -0.578125 L 2.90625 -1.140625 Z M 2.375 -3.9375 L 2.375 -1.390625 L 0.53125 -1.390625 Z M 2.375 -3.9375 "/>
</g>
<g id="glyph-1-9">
<path d="M 1.90625 -2.328125 C 2.453125 -2.328125 2.84375 -1.953125 2.84375 -1.203125 C 2.84375 -0.34375 2.328125 -0.078125 1.9375 -0.078125 C 1.65625 -0.078125 1.03125 -0.15625 0.75 -0.578125 C 1.078125 -0.578125 1.15625 -0.8125 1.15625 -0.96875 C 1.15625 -1.1875 0.984375 -1.34375 0.765625 -1.34375 C 0.578125 -1.34375 0.375 -1.21875 0.375 -0.9375 C 0.375 -0.28125 1.09375 0.140625 1.9375 0.140625 C 2.90625 0.140625 3.578125 -0.515625 3.578125 -1.203125 C 3.578125 -1.75 3.140625 -2.296875 2.375 -2.453125 C 3.09375 -2.71875 3.359375 -3.234375 3.359375 -3.671875 C 3.359375 -4.21875 2.734375 -4.625 1.953125 -4.625 C 1.1875 -4.625 0.59375 -4.25 0.59375 -3.6875 C 0.59375 -3.453125 0.75 -3.328125 0.953125 -3.328125 C 1.171875 -3.328125 1.3125 -3.484375 1.3125 -3.671875 C 1.3125 -3.875 1.171875 -4.03125 0.953125 -4.046875 C 1.203125 -4.34375 1.671875 -4.421875 1.9375 -4.421875 C 2.25 -4.421875 2.6875 -4.265625 2.6875 -3.671875 C 2.6875 -3.375 2.59375 -3.046875 2.40625 -2.84375 C 2.1875 -2.578125 1.984375 -2.5625 1.640625 -2.53125 C 1.46875 -2.515625 1.453125 -2.515625 1.421875 -2.515625 C 1.40625 -2.515625 1.34375 -2.5 1.34375 -2.421875 C 1.34375 -2.328125 1.40625 -2.328125 1.53125 -2.328125 Z M 1.90625 -2.328125 "/>
</g>
<g id="glyph-2-0">
<path d="M 2.203125 -4.78125 C 2.203125 -4.953125 2.203125 -4.96875 2.03125 -4.96875 C 1.5625 -4.5 0.90625 -4.5 0.671875 -4.5 L 0.671875 -4.265625 C 0.8125 -4.265625 1.25 -4.265625 1.640625 -4.453125 L 1.640625 -0.59375 C 1.640625 -0.328125 1.625 -0.234375 0.953125 -0.234375 L 0.703125 -0.234375 L 0.703125 0 C 0.96875 -0.015625 1.625 -0.015625 1.921875 -0.015625 C 2.21875 -0.015625 2.875 -0.015625 3.125 0 L 3.125 -0.234375 L 2.890625 -0.234375 C 2.21875 -0.234375 2.203125 -0.3125 2.203125 -0.59375 Z M 2.203125 -4.78125 "/>
</g>
<g id="glyph-2-1">
<path d="M 0.984375 -2.453125 L 0.984375 -2.625 C 0.984375 -4.515625 1.90625 -4.78125 2.296875 -4.78125 C 2.46875 -4.78125 2.78125 -4.75 2.953125 -4.484375 C 2.84375 -4.484375 2.546875 -4.484375 2.546875 -4.15625 C 2.546875 -3.921875 2.71875 -3.8125 2.890625 -3.8125 C 3 -3.8125 3.21875 -3.875 3.21875 -4.171875 C 3.21875 -4.609375 2.890625 -4.96875 2.28125 -4.96875 C 1.328125 -4.96875 0.3125 -4.015625 0.3125 -2.359375 C 0.3125 -0.359375 1.1875 0.171875 1.875 0.171875 C 2.703125 0.171875 3.40625 -0.53125 3.40625 -1.53125 C 3.40625 -2.46875 2.75 -3.1875 1.921875 -3.1875 C 1.40625 -3.1875 1.140625 -2.8125 0.984375 -2.453125 Z M 1.875 -0.046875 C 1.40625 -0.046875 1.1875 -0.5 1.140625 -0.609375 C 1 -0.953125 1 -1.546875 1 -1.6875 C 1 -2.265625 1.234375 -3.015625 1.90625 -3.015625 C 2.03125 -3.015625 2.375 -3.015625 2.609375 -2.546875 C 2.734375 -2.28125 2.734375 -1.890625 2.734375 -1.53125 C 2.734375 -1.171875 2.734375 -0.796875 2.609375 -0.53125 C 2.390625 -0.078125 2.046875 -0.046875 1.875 -0.046875 Z M 1.875 -0.046875 "/>
</g>
<g id="glyph-2-2">
<path d="M 0.953125 -0.578125 L 1.734375 -1.34375 C 2.90625 -2.375 3.359375 -2.78125 3.359375 -3.53125 C 3.359375 -4.375 2.6875 -4.96875 1.765625 -4.96875 C 0.921875 -4.96875 0.375 -4.28125 0.375 -3.625 C 0.375 -3.203125 0.75 -3.203125 0.765625 -3.203125 C 0.890625 -3.203125 1.15625 -3.296875 1.15625 -3.59375 C 1.15625 -3.796875 1.015625 -3.984375 0.765625 -3.984375 C 0.703125 -3.984375 0.6875 -3.984375 0.671875 -3.984375 C 0.84375 -4.46875 1.234375 -4.75 1.671875 -4.75 C 2.359375 -4.75 2.671875 -4.140625 2.671875 -3.53125 C 2.671875 -2.921875 2.296875 -2.34375 1.890625 -1.875 L 0.453125 -0.28125 C 0.375 -0.1875 0.375 -0.171875 0.375 0 L 3.140625 0 L 3.359375 -1.296875 L 3.171875 -1.296875 C 3.125 -1.078125 3.078125 -0.75 3 -0.640625 C 2.953125 -0.578125 2.453125 -0.578125 2.296875 -0.578125 Z M 0.953125 -0.578125 "/>
</g>
<g id="glyph-3-0">
<path d="M 2.65625 -1.3125 C 2.65625 -1.9375 2.140625 -2.4375 1.53125 -2.4375 C 0.90625 -2.4375 0.40625 -1.921875 0.40625 -1.3125 C 0.40625 -0.6875 0.90625 -0.1875 1.53125 -0.1875 C 2.15625 -0.1875 2.65625 -0.703125 2.65625 -1.3125 Z M 1.53125 -0.4375 C 1.03125 -0.4375 0.65625 -0.84375 0.65625 -1.3125 C 0.65625 -1.796875 1.046875 -2.171875 1.53125 -2.171875 C 2.015625 -2.171875 2.390625 -1.78125 2.390625 -1.3125 C 2.390625 -0.828125 2.015625 -0.4375 1.53125 -0.4375 Z M 1.53125 -0.4375 "/>
</g>
</g>
</defs>
<path fill-rule="nonzero" fill="rgb(100%, 100%, 100%)" fill-opacity="1" stroke-width="0.99628" stroke-linecap="round" stroke-linejoin="round" stroke="rgb(59.999084%, 19.999695%, 0%)" stroke-opacity="1" stroke-miterlimit="10" d="M 0.00003125 0.00046875 L 57.394562 0.00046875 L 111.9805 17.734844 L 158.418 51.473125 L 192.152375 97.906719 L 209.88675 152.492656 L 209.890656 209.887188 L 192.152375 264.473125 L 158.414094 310.910625 L 111.9805 344.645 L 57.394562 362.379375 L 0.00003125 362.383281 L -54.585906 344.645 L -101.023406 310.906719 L -134.757781 264.473125 L -152.492156 209.887188 L -152.496063 152.492656 L -134.757781 97.906719 L -101.0195 51.473125 L -54.585906 17.734844 Z M 0.00003125 0.00046875 " transform="matrix(1, 0, 0, -1, 170.582, 377.52)"/>
<path fill-rule="nonzero" fill="rgb(0%, 0%, 0%)" fill-opacity="1" stroke-width="0.3985" stroke-linecap="butt" stroke-linejoin="miter" stroke="rgb(0%, 0%, 0%)" stroke-opacity="1" stroke-miterlimit="10" d="M 1.496125 0.00046875 C 1.496125 0.824688 0.82425 1.492656 0.00003125 1.492656 C -0.824188 1.492656 -1.496063 0.824688 -1.496063 0.00046875 C -1.496063 -0.82375 -0.824188 -1.495625 0.00003125 -1.495625 C 0.82425 -1.495625 1.496125 -0.82375 1.496125 0.00046875 Z M 1.496125 0.00046875 " transform="matrix(1, 0, 0, -1, 170.582, 377.52)"/>
<path fill-rule="nonzero" fill="rgb(0%, 0%, 0%)" fill-opacity="1" stroke-width="0.3985" stroke-linecap="butt" stroke-linejoin="miter" stroke="rgb(0%, 0%, 0%)" stroke-opacity="1" stroke-miterlimit="10" d="M 58.890656 0.00046875 C 58.890656 0.824688 58.222687 1.492656 57.394562 1.492656 C 56.570344 1.492656 55.902375 0.824688 55.902375 0.00046875 C 55.902375 -0.827656 56.570344 -1.495625 57.394562 -1.495625 C 58.222687 -1.495625 58.890656 -0.827656 58.890656 0.00046875 Z M 58.890656 0.00046875 " transform="matrix(1, 0, 0, -1, 170.582, 377.52)"/>
<path fill-rule="nonzero" fill="rgb(0%, 0%, 0%)" fill-opacity="1" stroke-width="0.3985" stroke-linecap="butt" stroke-linejoin="miter" stroke="rgb(0%, 0%, 0%)" stroke-opacity="1" stroke-miterlimit="10" d="M 113.476594 17.734844 C 113.476594 18.562969 112.804719 19.230938 111.9805 19.230938 C 111.156281 19.230938 110.488312 18.562969 110.488312 17.734844 C 110.488312 16.910625 111.156281 16.242656 111.9805 16.242656 C 112.804719 16.242656 113.476594 16.910625 113.476594 17.734844 Z M 113.476594 17.734844 " transform="matrix(1, 0, 0, -1, 170.582, 377.52)"/>
<path fill-rule="nonzero" fill="rgb(0%, 0%, 0%)" fill-opacity="1" stroke-width="0.3985" stroke-linecap="butt" stroke-linejoin="miter" stroke="rgb(0%, 0%, 0%)" stroke-opacity="1" stroke-miterlimit="10" d="M 159.910187 51.473125 C 159.910187 52.297344 159.242219 52.965313 158.418 52.965313 C 157.589875 52.965313 156.921906 52.297344 156.921906 51.473125 C 156.921906 50.648906 157.589875 49.977031 158.418 49.977031 C 159.242219 49.977031 159.910187 50.648906 159.910187 51.473125 Z M 159.910187 51.473125 " transform="matrix(1, 0, 0, -1, 170.582, 377.52)"/>
<path fill-rule="nonzero" fill="rgb(0%, 0%, 0%)" fill-opacity="1" stroke-width="0.3985" stroke-linecap="butt" stroke-linejoin="miter" stroke="rgb(0%, 0%, 0%)" stroke-opacity="1" stroke-miterlimit="10" d="M 193.648469 97.906719 C 193.648469 98.730938 192.976594 99.398906 192.152375 99.398906 C 191.328156 99.398906 190.660187 98.730938 190.660187 97.906719 C 190.660187 97.078594 191.328156 96.410625 192.152375 96.410625 C 192.976594 96.410625 193.648469 97.078594 193.648469 97.906719 Z M 193.648469 97.906719 " transform="matrix(1, 0, 0, -1, 170.582, 377.52)"/>
<path fill-rule="nonzero" fill="rgb(0%, 0%, 0%)" fill-opacity="1" stroke-width="0.3985" stroke-linecap="butt" stroke-linejoin="miter" stroke="rgb(0%, 0%, 0%)" stroke-opacity="1" stroke-miterlimit="10" d="M 211.382844 152.492656 C 211.382844 153.316875 210.710969 153.98875 209.88675 153.98875 C 209.062531 153.98875 208.394562 153.316875 208.394562 152.492656 C 208.394562 151.668438 209.062531 150.996563 209.88675 150.996563 C 210.710969 150.996563 211.382844 151.668438 211.382844 152.492656 Z M 211.382844 152.492656 " transform="matrix(1, 0, 0, -1, 170.582, 377.52)"/>
<path fill-rule="nonzero" fill="rgb(0%, 0%, 0%)" fill-opacity="1" stroke-width="0.3985" stroke-linecap="butt" stroke-linejoin="miter" stroke="rgb(0%, 0%, 0%)" stroke-opacity="1" stroke-miterlimit="10" d="M 211.382844 209.887188 C 211.382844 210.715313 210.714875 211.383281 209.890656 211.383281 C 209.062531 211.383281 208.394562 210.715313 208.394562 209.887188 C 208.394562 209.062969 209.062531 208.395 209.890656 208.395 C 210.714875 208.395 211.382844 209.062969 211.382844 209.887188 Z M 211.382844 209.887188 " transform="matrix(1, 0, 0, -1, 170.582, 377.52)"/>
<path fill-rule="nonzero" fill="rgb(0%, 0%, 0%)" fill-opacity="1" stroke-width="0.3985" stroke-linecap="butt" stroke-linejoin="miter" stroke="rgb(0%, 0%, 0%)" stroke-opacity="1" stroke-miterlimit="10" d="M 193.644562 264.473125 C 193.644562 265.30125 192.976594 265.969219 192.152375 265.969219 C 191.328156 265.969219 190.656281 265.30125 190.656281 264.473125 C 190.656281 263.648906 191.328156 262.980938 192.152375 262.980938 C 192.976594 262.980938 193.644562 263.648906 193.644562 264.473125 Z M 193.644562 264.473125 " transform="matrix(1, 0, 0, -1, 170.582, 377.52)"/>
<path fill-rule="nonzero" fill="rgb(0%, 0%, 0%)" fill-opacity="1" stroke-width="0.3985" stroke-linecap="butt" stroke-linejoin="miter" stroke="rgb(0%, 0%, 0%)" stroke-opacity="1" stroke-miterlimit="10" d="M 159.910187 310.910625 C 159.910187 311.734844 159.238312 312.402813 158.414094 312.402813 C 157.589875 312.402813 156.921906 311.734844 156.921906 310.910625 C 156.921906 310.0825 157.589875 309.414531 158.414094 309.414531 C 159.238312 309.414531 159.910187 310.0825 159.910187 310.910625 Z M 159.910187 310.910625 " transform="matrix(1, 0, 0, -1, 170.582, 377.52)"/>
<path fill-rule="nonzero" fill="rgb(0%, 0%, 0%)" fill-opacity="1" stroke-width="0.3985" stroke-linecap="butt" stroke-linejoin="miter" stroke="rgb(0%, 0%, 0%)" stroke-opacity="1" stroke-miterlimit="10" d="M 113.476594 344.645 C 113.476594 345.469219 112.808625 346.141094 111.9805 346.141094 C 111.156281 346.141094 110.488312 345.469219 110.488312 344.645 C 110.488312 343.820781 111.156281 343.152813 111.9805 343.152813 C 112.808625 343.152813 113.476594 343.820781 113.476594 344.645 Z M 113.476594 344.645 " transform="matrix(1, 0, 0, -1, 170.582, 377.52)"/>
<path fill-rule="nonzero" fill="rgb(0%, 0%, 0%)" fill-opacity="1" stroke-width="0.3985" stroke-linecap="butt" stroke-linejoin="miter" stroke="rgb(0%, 0%, 0%)" stroke-opacity="1" stroke-miterlimit="10" d="M 58.890656 362.379375 C 58.890656 363.2075 58.218781 363.875469 57.394562 363.875469 C 56.570344 363.875469 55.898469 363.2075 55.898469 362.379375 C 55.898469 361.555156 56.570344 360.887188 57.394562 360.887188 C 58.218781 360.887188 58.890656 361.555156 58.890656 362.379375 Z M 58.890656 362.379375 " transform="matrix(1, 0, 0, -1, 170.582, 377.52)"/>
<path fill-rule="nonzero" fill="rgb(0%, 0%, 0%)" fill-opacity="1" stroke-width="0.3985" stroke-linecap="butt" stroke-linejoin="miter" stroke="rgb(0%, 0%, 0%)" stroke-opacity="1" stroke-miterlimit="10" d="M 1.492219 362.383281 C 1.492219 363.2075 0.82425 363.875469 0.00003125 363.875469 C -0.828094 363.875469 -1.496063 363.2075 -1.496063 362.383281 C -1.496063 361.555156 -0.828094 360.887188 0.00003125 360.887188 C 0.82425 360.887188 1.492219 361.555156 1.492219 362.383281 Z M 1.492219 362.383281 " transform="matrix(1, 0, 0, -1, 170.582, 377.52)"/>
<path fill-rule="nonzero" fill="rgb(0%, 0%, 0%)" fill-opacity="1" stroke-width="0.3985" stroke-linecap="butt" stroke-linejoin="miter" stroke="rgb(0%, 0%, 0%)" stroke-opacity="1" stroke-miterlimit="10" d="M -53.093719 344.645 C -53.093719 345.469219 -53.761688 346.137188 -54.585906 346.137188 C -55.410125 346.137188 -56.082 345.469219 -56.082 344.645 C -56.082 343.820781 -55.410125 343.148906 -54.585906 343.148906 C -53.761688 343.148906 -53.093719 343.820781 -53.093719 344.645 Z M -53.093719 344.645 " transform="matrix(1, 0, 0, -1, 170.582, 377.52)"/>
<path fill-rule="nonzero" fill="rgb(0%, 0%, 0%)" fill-opacity="1" stroke-width="0.3985" stroke-linecap="butt" stroke-linejoin="miter" stroke="rgb(0%, 0%, 0%)" stroke-opacity="1" stroke-miterlimit="10" d="M -99.527313 310.906719 C -99.527313 311.730938 -100.195281 312.402813 -101.023406 312.402813 C -101.847625 312.402813 -102.515594 311.730938 -102.515594 310.906719 C -102.515594 310.0825 -101.847625 309.414531 -101.023406 309.414531 C -100.195281 309.414531 -99.527313 310.0825 -99.527313 310.906719 Z M -99.527313 310.906719 " transform="matrix(1, 0, 0, -1, 170.582, 377.52)"/>
<path fill-rule="nonzero" fill="rgb(0%, 0%, 0%)" fill-opacity="1" stroke-width="0.3985" stroke-linecap="butt" stroke-linejoin="miter" stroke="rgb(0%, 0%, 0%)" stroke-opacity="1" stroke-miterlimit="10" d="M -133.265594 264.473125 C -133.265594 265.30125 -133.933563 265.969219 -134.757781 265.969219 C -135.582 265.969219 -136.253875 265.30125 -136.253875 264.473125 C -136.253875 263.648906 -135.582 262.980938 -134.757781 262.980938 C -133.933563 262.980938 -133.265594 263.648906 -133.265594 264.473125 Z M -133.265594 264.473125 " transform="matrix(1, 0, 0, -1, 170.582, 377.52)"/>
<path fill-rule="nonzero" fill="rgb(0%, 0%, 0%)" fill-opacity="1" stroke-width="0.3985" stroke-linecap="butt" stroke-linejoin="miter" stroke="rgb(0%, 0%, 0%)" stroke-opacity="1" stroke-miterlimit="10" d="M -150.999969 209.887188 C -150.999969 210.711406 -151.667938 211.383281 -152.492156 211.383281 C -153.316375 211.383281 -153.98825 210.711406 -153.98825 209.887188 C -153.98825 209.062969 -153.316375 208.391094 -152.492156 208.391094 C -151.667938 208.391094 -150.999969 209.062969 -150.999969 209.887188 Z M -150.999969 209.887188 " transform="matrix(1, 0, 0, -1, 170.582, 377.52)"/>
<path fill-rule="nonzero" fill="rgb(0%, 0%, 0%)" fill-opacity="1" stroke-width="0.3985" stroke-linecap="butt" stroke-linejoin="miter" stroke="rgb(0%, 0%, 0%)" stroke-opacity="1" stroke-miterlimit="10" d="M -150.999969 152.492656 C -150.999969 153.316875 -151.667938 153.984844 -152.496063 153.984844 C -153.320281 153.984844 -153.98825 153.316875 -153.98825 152.492656 C -153.98825 151.664531 -153.320281 150.996563 -152.496063 150.996563 C -151.667938 150.996563 -150.999969 151.664531 -150.999969 152.492656 Z M -150.999969 152.492656 " transform="matrix(1, 0, 0, -1, 170.582, 377.52)"/>
<path fill-rule="nonzero" fill="rgb(0%, 0%, 0%)" fill-opacity="1" stroke-width="0.3985" stroke-linecap="butt" stroke-linejoin="miter" stroke="rgb(0%, 0%, 0%)" stroke-opacity="1" stroke-miterlimit="10" d="M -133.261688 97.906719 C -133.261688 98.730938 -133.933563 99.398906 -134.757781 99.398906 C -135.582 99.398906 -136.249969 98.730938 -136.249969 97.906719 C -136.249969 97.0825 -135.582 96.410625 -134.757781 96.410625 C -133.933563 96.410625 -133.261688 97.0825 -133.261688 97.906719 Z M -133.261688 97.906719 " transform="matrix(1, 0, 0, -1, 170.582, 377.52)"/>
<path fill-rule="nonzero" fill="rgb(0%, 0%, 0%)" fill-opacity="1" stroke-width="0.3985" stroke-linecap="butt" stroke-linejoin="miter" stroke="rgb(0%, 0%, 0%)" stroke-opacity="1" stroke-miterlimit="10" d="M -99.527313 51.473125 C -99.527313 52.297344 -100.195281 52.965313 -101.0195 52.965313 C -101.843719 52.965313 -102.515594 52.297344 -102.515594 51.473125 C -102.515594 50.645 -101.843719 49.977031 -101.0195 49.977031 C -100.195281 49.977031 -99.527313 50.645 -99.527313 51.473125 Z M -99.527313 51.473125 " transform="matrix(1, 0, 0, -1, 170.582, 377.52)"/>
<path fill-rule="nonzero" fill="rgb(0%, 0%, 0%)" fill-opacity="1" stroke-width="0.3985" stroke-linecap="butt" stroke-linejoin="miter" stroke="rgb(0%, 0%, 0%)" stroke-opacity="1" stroke-miterlimit="10" d="M -53.093719 17.734844 C -53.093719 18.559063 -53.761688 19.227031 -54.585906 19.227031 C -55.414031 19.227031 -56.082 18.559063 -56.082 17.734844 C -56.082 16.910625 -55.414031 16.23875 -54.585906 16.23875 C -53.761688 16.23875 -53.093719 16.910625 -53.093719 17.734844 Z M -53.093719 17.734844 " transform="matrix(1, 0, 0, -1, 170.582, 377.52)"/>
<g fill="rgb(0%, 0%, 0%)" fill-opacity="1">
<use xlink:href="#glyph-0-0" x="164.957" y="387.848"/>
</g>
<g fill="rgb(0%, 0%, 0%)" fill-opacity="1">
<use xlink:href="#glyph-1-0" x="171.737" y="389.342"/>
</g>
<g fill="rgb(0%, 0%, 0%)" fill-opacity="1">
<use xlink:href="#glyph-0-0" x="220.367" y="387.849"/>
</g>
<g fill="rgb(0%, 0%, 0%)" fill-opacity="1">
<use xlink:href="#glyph-1-1" x="227.147" y="389.343"/>
<use xlink:href="#glyph-1-2" x="231.118579" y="389.343"/>
</g>
<g fill="rgb(0%, 0%, 0%)" fill-opacity="1">
<use xlink:href="#glyph-0-0" x="286.082" y="370.112"/>
</g>
<g fill="rgb(0%, 0%, 0%)" fill-opacity="1">
<use xlink:href="#glyph-1-0" x="292.862" y="371.606"/>
<use xlink:href="#glyph-1-3" x="296.833579" y="371.606"/>
</g>
<g fill="rgb(0%, 0%, 0%)" fill-opacity="1">
<use xlink:href="#glyph-0-0" x="332.516" y="336.375"/>
</g>
<g fill="rgb(0%, 0%, 0%)" fill-opacity="1">
<use xlink:href="#glyph-1-0" x="339.296" y="337.87"/>
<use xlink:href="#glyph-1-4" x="343.267579" y="337.87"/>
</g>
<g fill="rgb(0%, 0%, 0%)" fill-opacity="1">
<use xlink:href="#glyph-0-0" x="366.252" y="289.943"/>
</g>
<g fill="rgb(0%, 0%, 0%)" fill-opacity="1">
<use xlink:href="#glyph-1-0" x="373.032" y="291.438"/>
<use xlink:href="#glyph-1-5" x="377.003579" y="291.438"/>
</g>
<g fill="rgb(0%, 0%, 0%)" fill-opacity="1">
<use xlink:href="#glyph-0-0" x="383.987" y="235.357"/>
</g>
<g fill="rgb(0%, 0%, 0%)" fill-opacity="1">
<use xlink:href="#glyph-1-0" x="390.767" y="236.851"/>
<use xlink:href="#glyph-1-6" x="394.738579" y="236.851"/>
</g>
<g fill="rgb(0%, 0%, 0%)" fill-opacity="1">
<use xlink:href="#glyph-0-0" x="383.988" y="162.62"/>
</g>
<g fill="rgb(0%, 0%, 0%)" fill-opacity="1">
<use xlink:href="#glyph-1-0" x="390.768" y="164.114"/>
<use xlink:href="#glyph-1-7" x="394.739579" y="164.114"/>
</g>
<g fill="rgb(0%, 0%, 0%)" fill-opacity="1">
<use xlink:href="#glyph-0-0" x="366.251" y="108.035"/>
</g>
<g fill="rgb(0%, 0%, 0%)" fill-opacity="1">
<use xlink:href="#glyph-1-0" x="373.031" y="109.53"/>
<use xlink:href="#glyph-1-8" x="377.002579" y="109.53"/>
</g>
<g fill="rgb(0%, 0%, 0%)" fill-opacity="1">
<use xlink:href="#glyph-0-0" x="332.514" y="61.601"/>
</g>
<g fill="rgb(0%, 0%, 0%)" fill-opacity="1">
<use xlink:href="#glyph-1-0" x="339.295" y="63.095"/>
<use xlink:href="#glyph-1-9" x="343.266579" y="63.095"/>
</g>
<g fill="rgb(0%, 0%, 0%)" fill-opacity="1">
<use xlink:href="#glyph-0-0" x="286.082" y="27.865"/>
</g>
<g fill="rgb(0%, 0%, 0%)" fill-opacity="1">
<use xlink:href="#glyph-1-0" x="292.862" y="29.359"/>
<use xlink:href="#glyph-1-1" x="296.833579" y="29.359"/>
</g>
<g fill="rgb(0%, 0%, 0%)" fill-opacity="1">
<use xlink:href="#glyph-0-0" x="220.365" y="10.13"/>
</g>
<g fill="rgb(0%, 0%, 0%)" fill-opacity="1">
<use xlink:href="#glyph-1-0" x="227.146" y="11.625"/>
<use xlink:href="#glyph-1-0" x="231.117579" y="11.625"/>
</g>
<g fill="rgb(0%, 0%, 0%)" fill-opacity="1">
<use xlink:href="#glyph-0-0" x="162.97" y="10.129"/>
</g>
<g fill="rgb(0%, 0%, 0%)" fill-opacity="1">
<use xlink:href="#glyph-1-0" x="169.75" y="11.623"/>
<use xlink:href="#glyph-1-2" x="173.721579" y="11.623"/>
</g>
<g fill="rgb(0%, 0%, 0%)" fill-opacity="1">
<use xlink:href="#glyph-0-0" x="101.227" y="27.866"/>
</g>
<g fill="rgb(0%, 0%, 0%)" fill-opacity="1">
<use xlink:href="#glyph-1-3" x="108.007" y="29.36"/>
</g>
<g fill="rgb(0%, 0%, 0%)" fill-opacity="1">
<use xlink:href="#glyph-0-0" x="54.792" y="61.602"/>
</g>
<g fill="rgb(0%, 0%, 0%)" fill-opacity="1">
<use xlink:href="#glyph-1-4" x="61.573" y="63.097"/>
</g>
<g fill="rgb(0%, 0%, 0%)" fill-opacity="1">
<use xlink:href="#glyph-0-0" x="21.056" y="108.035"/>
</g>
<g fill="rgb(0%, 0%, 0%)" fill-opacity="1">
<use xlink:href="#glyph-1-5" x="27.836" y="109.529"/>
</g>
<g fill="rgb(0%, 0%, 0%)" fill-opacity="1">
<use xlink:href="#glyph-0-0" x="3.322" y="162.621"/>
</g>
<g fill="rgb(0%, 0%, 0%)" fill-opacity="1">
<use xlink:href="#glyph-1-6" x="10.102" y="164.116"/>
</g>
<g fill="rgb(0%, 0%, 0%)" fill-opacity="1">
<use xlink:href="#glyph-0-0" x="3.32" y="235.358"/>
</g>
<g fill="rgb(0%, 0%, 0%)" fill-opacity="1">
<use xlink:href="#glyph-1-7" x="10.1" y="236.852"/>
</g>
<g fill="rgb(0%, 0%, 0%)" fill-opacity="1">
<use xlink:href="#glyph-0-0" x="21.057" y="289.943"/>
</g>
<g fill="rgb(0%, 0%, 0%)" fill-opacity="1">
<use xlink:href="#glyph-1-8" x="27.837" y="291.437"/>
</g>
<g fill="rgb(0%, 0%, 0%)" fill-opacity="1">
<use xlink:href="#glyph-0-0" x="54.794" y="336.377"/>
</g>
<g fill="rgb(0%, 0%, 0%)" fill-opacity="1">
<use xlink:href="#glyph-1-9" x="61.574" y="337.871"/>
</g>
<g fill="rgb(0%, 0%, 0%)" fill-opacity="1">
<use xlink:href="#glyph-0-0" x="101.226" y="370.113"/>
</g>
<g fill="rgb(0%, 0%, 0%)" fill-opacity="1">
<use xlink:href="#glyph-1-1" x="108.006" y="371.608"/>
</g>
<path fill-rule="nonzero" fill="rgb(0%, 39.213562%, 0%)" fill-opacity="0.2" d="M 227.980469 377.519531 L 236.066406 374.894531 C 234.613281 370.425781 229.816406 367.984375 225.351562 369.433594 C 221.847656 370.570312 219.472656 373.839844 219.472656 377.523438 Z M 227.980469 377.519531 "/>
<path fill-rule="nonzero" fill="rgb(0%, 39.213562%, 0%)" fill-opacity="0.2" d="M 170.582031 377.519531 L 179.085938 377.519531 C 179.085938 372.824219 175.277344 369.015625 170.582031 369.015625 C 166.898438 369.015625 163.632812 371.390625 162.496094 374.890625 Z M 170.582031 377.519531 "/>
<path fill-rule="nonzero" fill="rgb(0%, 39.213562%, 0%)" fill-opacity="0.2" d="M 115.992188 359.785156 L 124.082031 362.414062 C 125.53125 357.945312 123.089844 353.148438 118.621094 351.699219 C 115.117188 350.558594 111.28125 351.808594 109.113281 354.785156 Z M 115.992188 359.785156 "/>
<path fill-rule="nonzero" fill="rgb(0%, 39.213562%, 0%)" fill-opacity="0.2" d="M 69.558594 326.046875 L 76.441406 331.046875 C 79.203125 327.246094 78.359375 321.929688 74.558594 319.167969 C 71.582031 317.003906 67.542969 317.003906 64.5625 319.167969 Z M 69.558594 326.046875 "/>
<path fill-rule="nonzero" fill="rgb(0%, 39.213562%, 0%)" fill-opacity="0.2" d="M 35.820312 279.609375 L 40.824219 286.492188 C 44.621094 283.734375 45.464844 278.414062 42.703125 274.617188 C 40.539062 271.636719 36.699219 270.386719 33.195312 271.527344 Z M 35.820312 279.609375 "/>
<path fill-rule="nonzero" fill="rgb(0%, 39.213562%, 0%)" fill-opacity="0.2" d="M 18.082031 225.023438 L 20.714844 233.117188 C 25.183594 231.664062 27.625 226.867188 26.175781 222.398438 C 25.035156 218.898438 21.769531 216.523438 18.085938 216.523438 Z M 18.082031 225.023438 "/>
<path fill-rule="nonzero" fill="rgb(0%, 39.213562%, 0%)" fill-opacity="0.2" d="M 18.085938 167.628906 L 18.089844 176.136719 C 22.785156 176.136719 26.59375 172.328125 26.59375 167.632812 C 26.59375 163.949219 24.21875 160.683594 20.714844 159.542969 Z M 18.085938 167.628906 "/>
<path fill-rule="nonzero" fill="rgb(0%, 39.213562%, 0%)" fill-opacity="0.2" d="M 35.820312 113.039062 L 33.195312 121.132812 C 37.664062 122.582031 42.460938 120.140625 43.910156 115.671875 C 45.050781 112.167969 43.800781 108.332031 40.824219 106.164062 Z M 35.820312 113.039062 "/>
<path fill-rule="nonzero" fill="rgb(0%, 39.213562%, 0%)" fill-opacity="0.2" d="M 69.558594 66.605469 L 64.5625 73.492188 C 68.363281 76.253906 73.679688 75.410156 76.441406 71.609375 C 78.605469 68.628906 78.605469 64.59375 76.441406 61.613281 Z M 69.558594 66.605469 "/>
<path fill-rule="nonzero" fill="rgb(0%, 39.213562%, 0%)" fill-opacity="0.2" d="M 115.992188 32.867188 L 109.117188 37.875 C 111.875 41.671875 117.195312 42.515625 120.992188 39.753906 C 123.972656 37.589844 125.222656 33.75 124.082031 30.246094 Z M 115.992188 32.867188 "/>
<path fill-rule="nonzero" fill="rgb(0%, 39.213562%, 0%)" fill-opacity="0.2" d="M 170.582031 15.128906 L 162.492188 17.765625 C 163.945312 22.234375 168.742188 24.675781 173.207031 23.226562 C 176.710938 22.085938 179.085938 18.820312 179.085938 15.136719 Z M 170.582031 15.128906 "/>
<path fill-rule="nonzero" fill="rgb(0%, 39.213562%, 0%)" fill-opacity="0.2" d="M 227.976562 15.128906 L 219.472656 15.140625 C 219.472656 19.835938 223.28125 23.644531 227.976562 23.644531 C 231.660156 23.644531 234.925781 21.269531 236.0625 17.765625 Z M 227.976562 15.128906 "/>
<path fill-rule="nonzero" fill="rgb(0%, 39.213562%, 0%)" fill-opacity="0.2" d="M 282.566406 32.863281 L 274.476562 30.246094 C 273.023438 34.714844 275.46875 39.511719 279.9375 40.960938 C 283.441406 42.101562 287.277344 40.851562 289.445312 37.871094 Z M 282.566406 32.863281 "/>
<path fill-rule="nonzero" fill="rgb(0%, 39.213562%, 0%)" fill-opacity="0.2" d="M 329 66.601562 L 322.117188 61.613281 C 319.355469 65.410156 320.199219 70.730469 324 73.492188 C 326.976562 75.65625 331.015625 75.65625 333.996094 73.492188 Z M 329 66.601562 "/>
<path fill-rule="nonzero" fill="rgb(0%, 39.213562%, 0%)" fill-opacity="0.2" d="M 362.738281 113.039062 L 357.734375 106.167969 C 353.9375 108.925781 353.09375 114.246094 355.855469 118.042969 C 358.019531 121.023438 361.859375 122.273438 365.363281 121.132812 Z M 362.738281 113.039062 "/>
<path fill-rule="nonzero" fill="rgb(0%, 39.213562%, 0%)" fill-opacity="0.2" d="M 380.476562 167.625 L 377.84375 159.542969 C 373.375 160.996094 370.933594 165.792969 372.382812 170.257812 C 373.523438 173.761719 376.789062 176.136719 380.472656 176.136719 Z M 380.476562 167.625 "/>
<path fill-rule="nonzero" fill="rgb(0%, 39.213562%, 0%)" fill-opacity="0.2" d="M 380.476562 225.023438 L 380.46875 216.523438 C 375.773438 216.523438 371.964844 220.332031 371.964844 225.027344 C 371.964844 228.710938 374.339844 231.976562 377.839844 233.113281 Z M 380.476562 225.023438 "/>
<path fill-rule="nonzero" fill="rgb(0%, 39.213562%, 0%)" fill-opacity="0.2" d="M 362.738281 279.613281 L 365.363281 271.527344 C 360.894531 270.074219 356.097656 272.519531 354.648438 276.988281 C 353.507812 280.492188 354.757812 284.328125 357.734375 286.496094 Z M 362.738281 279.613281 "/>
<path fill-rule="nonzero" fill="rgb(0%, 39.213562%, 0%)" fill-opacity="0.2" d="M 329.003906 326.046875 L 333.996094 319.167969 C 330.195312 316.40625 324.878906 317.25 322.117188 321.050781 C 319.953125 324.027344 319.953125 328.066406 322.117188 331.046875 Z M 329.003906 326.046875 "/>
<path fill-rule="nonzero" fill="rgb(0%, 39.213562%, 0%)" fill-opacity="0.2" d="M 282.566406 359.785156 L 289.441406 354.785156 C 286.683594 350.988281 281.363281 350.144531 277.566406 352.90625 C 274.585938 355.070312 273.335938 358.910156 274.476562 362.414062 Z M 282.566406 359.785156 "/>
<path fill="none" stroke-width="0.99628" stroke-linecap="butt" stroke-linejoin="miter" stroke="rgb(0%, 39.213562%, 0%)" stroke-opacity="1" stroke-miterlimit="10" d="M 65.484406 2.625469 C 64.031281 7.094219 59.234406 9.535625 54.769562 8.086406 C 51.265656 6.949688 48.890656 3.680156 48.890656 -0.0034375 " transform="matrix(1, 0, 0, -1, 170.582, 377.52)"/>
<path fill="none" stroke-width="0.99628" stroke-linecap="butt" stroke-linejoin="miter" stroke="rgb(0%, 39.213562%, 0%)" stroke-opacity="1" stroke-miterlimit="10" d="M 8.503937 0.00046875 C 8.503937 4.695781 4.695344 8.504375 0.00003125 8.504375 C -3.683563 8.504375 -6.949188 6.129375 -8.085906 2.629375 " transform="matrix(1, 0, 0, -1, 170.582, 377.52)"/>
<path fill="none" stroke-width="0.99628" stroke-linecap="butt" stroke-linejoin="miter" stroke="rgb(0%, 39.213562%, 0%)" stroke-opacity="1" stroke-miterlimit="10" d="M -46.499969 15.105938 C -45.05075 19.574688 -47.492156 24.371563 -51.960906 25.820781 C -55.464813 26.961406 -59.30075 25.711406 -61.468719 22.734844 " transform="matrix(1, 0, 0, -1, 170.582, 377.52)"/>
<path fill="none" stroke-width="0.99628" stroke-linecap="butt" stroke-linejoin="miter" stroke="rgb(0%, 39.213562%, 0%)" stroke-opacity="1" stroke-miterlimit="10" d="M -94.140594 46.473125 C -91.378875 50.273906 -92.222625 55.590313 -96.023406 58.352031 C -98.999969 60.516094 -103.039031 60.516094 -106.0195 58.352031 " transform="matrix(1, 0, 0, -1, 170.582, 377.52)"/>
<path fill="none" stroke-width="0.99628" stroke-linecap="butt" stroke-linejoin="miter" stroke="rgb(0%, 39.213562%, 0%)" stroke-opacity="1" stroke-miterlimit="10" d="M -129.757781 91.027813 C -125.960906 93.785625 -125.117156 99.105938 -127.878875 102.902813 C -130.042938 105.883281 -133.882781 107.133281 -137.386688 105.992656 " transform="matrix(1, 0, 0, -1, 170.582, 377.52)"/>
<path fill="none" stroke-width="0.99628" stroke-linecap="butt" stroke-linejoin="miter" stroke="rgb(0%, 39.213562%, 0%)" stroke-opacity="1" stroke-miterlimit="10" d="M -149.867156 144.402813 C -145.398406 145.855938 -142.957 150.652813 -144.406219 155.121563 C -145.546844 158.621563 -148.812469 160.996563 -152.496063 160.996563 " transform="matrix(1, 0, 0, -1, 170.582, 377.52)"/>
<path fill="none" stroke-width="0.99628" stroke-linecap="butt" stroke-linejoin="miter" stroke="rgb(0%, 39.213562%, 0%)" stroke-opacity="1" stroke-miterlimit="10" d="M -152.492156 201.383281 C -147.796844 201.383281 -143.98825 205.191875 -143.98825 209.887188 C -143.98825 213.570781 -146.36325 216.836406 -149.867156 217.977031 " transform="matrix(1, 0, 0, -1, 170.582, 377.52)"/>
<path fill="none" stroke-width="0.99628" stroke-linecap="butt" stroke-linejoin="miter" stroke="rgb(0%, 39.213562%, 0%)" stroke-opacity="1" stroke-miterlimit="10" d="M -137.386688 256.387188 C -132.917938 254.937969 -128.121063 257.379375 -126.671844 261.848125 C -125.531219 265.352031 -126.781219 269.187969 -129.757781 271.355938 " transform="matrix(1, 0, 0, -1, 170.582, 377.52)"/>
<path fill="none" stroke-width="0.99628" stroke-linecap="butt" stroke-linejoin="miter" stroke="rgb(0%, 39.213562%, 0%)" stroke-opacity="1" stroke-miterlimit="10" d="M -106.0195 304.027813 C -102.218719 301.266094 -96.902313 302.109844 -94.140594 305.910625 C -91.976531 308.891094 -91.976531 312.92625 -94.140594 315.906719 " transform="matrix(1, 0, 0, -1, 170.582, 377.52)"/>
<path fill="none" stroke-width="0.99628" stroke-linecap="butt" stroke-linejoin="miter" stroke="rgb(0%, 39.213562%, 0%)" stroke-opacity="1" stroke-miterlimit="10" d="M -61.464813 339.645 C -58.707 335.848125 -53.386688 335.004375 -49.589813 337.766094 C -46.609344 339.930156 -45.359344 343.77 -46.499969 347.273906 " transform="matrix(1, 0, 0, -1, 170.582, 377.52)"/>
<path fill="none" stroke-width="0.99628" stroke-linecap="butt" stroke-linejoin="miter" stroke="rgb(0%, 39.213562%, 0%)" stroke-opacity="1" stroke-miterlimit="10" d="M -8.089813 359.754375 C -6.636688 355.285625 -1.839813 352.844219 2.625031 354.293438 C 6.128937 355.434063 8.503937 358.699688 8.503937 362.383281 " transform="matrix(1, 0, 0, -1, 170.582, 377.52)"/>
<path fill="none" stroke-width="0.99628" stroke-linecap="butt" stroke-linejoin="miter" stroke="rgb(0%, 39.213562%, 0%)" stroke-opacity="1" stroke-miterlimit="10" d="M 48.890656 362.379375 C 48.890656 357.684063 52.69925 353.875469 57.394562 353.875469 C 61.078156 353.875469 64.343781 356.250469 65.4805 359.754375 " transform="matrix(1, 0, 0, -1, 170.582, 377.52)"/>
<path fill="none" stroke-width="0.99628" stroke-linecap="butt" stroke-linejoin="miter" stroke="rgb(0%, 39.213562%, 0%)" stroke-opacity="1" stroke-miterlimit="10" d="M 103.894562 347.273906 C 102.441437 342.805156 104.88675 338.008281 109.3555 336.559063 C 112.859406 335.418438 116.695344 336.668438 118.863312 339.648906 " transform="matrix(1, 0, 0, -1, 170.582, 377.52)"/>
<path fill="none" stroke-width="0.99628" stroke-linecap="butt" stroke-linejoin="miter" stroke="rgb(0%, 39.213562%, 0%)" stroke-opacity="1" stroke-miterlimit="10" d="M 151.535187 315.906719 C 148.773469 312.109844 149.617219 306.789531 153.418 304.027813 C 156.394562 301.86375 160.433625 301.86375 163.414094 304.027813 " transform="matrix(1, 0, 0, -1, 170.582, 377.52)"/>
<path fill="none" stroke-width="0.99628" stroke-linecap="butt" stroke-linejoin="miter" stroke="rgb(0%, 39.213562%, 0%)" stroke-opacity="1" stroke-miterlimit="10" d="M 187.152375 271.352031 C 183.3555 268.594219 182.51175 263.273906 185.273469 259.477031 C 187.437531 256.496563 191.277375 255.246563 194.781281 256.387188 " transform="matrix(1, 0, 0, -1, 170.582, 377.52)"/>
<path fill="none" stroke-width="0.99628" stroke-linecap="butt" stroke-linejoin="miter" stroke="rgb(0%, 39.213562%, 0%)" stroke-opacity="1" stroke-miterlimit="10" d="M 207.26175 217.977031 C 202.793 216.523906 200.351594 211.727031 201.800812 207.262188 C 202.941437 203.758281 206.207062 201.383281 209.890656 201.383281 " transform="matrix(1, 0, 0, -1, 170.582, 377.52)"/>
<path fill="none" stroke-width="0.99628" stroke-linecap="butt" stroke-linejoin="miter" stroke="rgb(0%, 39.213562%, 0%)" stroke-opacity="1" stroke-miterlimit="10" d="M 209.88675 160.996563 C 205.191437 160.996563 201.382844 157.187969 201.382844 152.492656 C 201.382844 148.809063 203.757844 145.543438 207.257844 144.406719 " transform="matrix(1, 0, 0, -1, 170.582, 377.52)"/>
<path fill="none" stroke-width="0.99628" stroke-linecap="butt" stroke-linejoin="miter" stroke="rgb(0%, 39.213562%, 0%)" stroke-opacity="1" stroke-miterlimit="10" d="M 194.781281 105.992656 C 190.312531 107.445781 185.515656 105.000469 184.066437 100.531719 C 182.925812 97.027813 184.175812 93.191875 187.152375 91.023906 " transform="matrix(1, 0, 0, -1, 170.582, 377.52)"/>
<path fill="none" stroke-width="0.99628" stroke-linecap="butt" stroke-linejoin="miter" stroke="rgb(0%, 39.213562%, 0%)" stroke-opacity="1" stroke-miterlimit="10" d="M 163.414094 58.352031 C 159.613312 61.11375 154.296906 60.27 151.535187 56.469219 C 149.371125 53.492656 149.371125 49.453594 151.535187 46.473125 " transform="matrix(1, 0, 0, -1, 170.582, 377.52)"/>
<path fill="none" stroke-width="0.99628" stroke-linecap="butt" stroke-linejoin="miter" stroke="rgb(0%, 39.213562%, 0%)" stroke-opacity="1" stroke-miterlimit="10" d="M 118.859406 22.734844 C 116.101594 26.531719 110.781281 27.375469 106.984406 24.61375 C 104.003937 22.449688 102.753937 18.609844 103.894562 15.105938 " transform="matrix(1, 0, 0, -1, 170.582, 377.52)"/>
<path fill="none" stroke-width="0.99628" stroke-linecap="butt" stroke-linejoin="miter" stroke="rgb(0%, 39.213562%, 0%)" stroke-opacity="1" stroke-miterlimit="10" d="M 65.484406 2.625469 C 64.031281 7.094219 59.234406 9.535625 54.769562 8.086406 C 51.265656 6.949688 48.890656 3.680156 48.890656 -0.0034375 " transform="matrix(1, 0, 0, -1, 170.582, 377.52)"/>
<path fill="none" stroke-width="0.3985" stroke-linecap="butt" stroke-linejoin="miter" stroke="rgb(0%, 0%, 0%)" stroke-opacity="1" stroke-miterlimit="10" d="M 56.382844 6.430156 L 55.753937 10.367656 " transform="matrix(1, 0, 0, -1, 170.582, 377.52)"/>
<path fill="none" stroke-width="0.99628" stroke-linecap="butt" stroke-linejoin="miter" stroke="rgb(0%, 39.213562%, 0%)" stroke-opacity="1" stroke-miterlimit="10" d="M 8.503937 0.00046875 C 8.503937 4.695781 4.695344 8.504375 0.00003125 8.504375 C -3.683563 8.504375 -6.949188 6.129375 -8.085906 2.629375 " transform="matrix(1, 0, 0, -1, 170.582, 377.52)"/>
<path fill="none" stroke-width="0.3985" stroke-linecap="butt" stroke-linejoin="miter" stroke="rgb(0%, 0%, 0%)" stroke-opacity="1" stroke-miterlimit="10" d="M 1.023469 6.430156 L 1.644562 10.367656 " transform="matrix(1, 0, 0, -1, 170.582, 377.52)"/>
<path fill="none" stroke-width="0.99628" stroke-linecap="butt" stroke-linejoin="miter" stroke="rgb(0%, 39.213562%, 0%)" stroke-opacity="1" stroke-miterlimit="10" d="M -46.499969 15.105938 C -45.05075 19.574688 -47.492156 24.371563 -51.960906 25.820781 C -55.464813 26.961406 -59.30075 25.711406 -61.468719 22.734844 " transform="matrix(1, 0, 0, -1, 170.582, 377.52)"/>
<path fill="none" stroke-width="0.3985" stroke-linecap="butt" stroke-linejoin="miter" stroke="rgb(0%, 0%, 0%)" stroke-opacity="1" stroke-miterlimit="10" d="M -51.624969 23.535625 L -49.820281 27.086406 " transform="matrix(1, 0, 0, -1, 170.582, 377.52)"/>
<path fill="none" stroke-width="0.99628" stroke-linecap="butt" stroke-linejoin="miter" stroke="rgb(0%, 39.213562%, 0%)" stroke-opacity="1" stroke-miterlimit="10" d="M -94.140594 46.473125 C -91.378875 50.273906 -92.222625 55.590313 -96.023406 58.352031 C -98.999969 60.516094 -103.039031 60.516094 -106.0195 58.352031 " transform="matrix(1, 0, 0, -1, 170.582, 377.52)"/>
<path fill="none" stroke-width="0.3985" stroke-linecap="butt" stroke-linejoin="miter" stroke="rgb(0%, 0%, 0%)" stroke-opacity="1" stroke-miterlimit="10" d="M -96.410125 56.070781 L -93.597625 58.891094 " transform="matrix(1, 0, 0, -1, 170.582, 377.52)"/>
<path fill="none" stroke-width="0.99628" stroke-linecap="butt" stroke-linejoin="miter" stroke="rgb(0%, 39.213562%, 0%)" stroke-opacity="1" stroke-miterlimit="10" d="M -129.757781 91.027813 C -125.960906 93.785625 -125.117156 99.105938 -127.878875 102.902813 C -130.042938 105.883281 -133.882781 107.133281 -137.386688 105.992656 " transform="matrix(1, 0, 0, -1, 170.582, 377.52)"/>
<path fill="none" stroke-width="0.3985" stroke-linecap="butt" stroke-linejoin="miter" stroke="rgb(0%, 0%, 0%)" stroke-opacity="1" stroke-miterlimit="10" d="M -128.953094 100.859844 L -125.402313 102.668438 " transform="matrix(1, 0, 0, -1, 170.582, 377.52)"/>
<path fill="none" stroke-width="0.99628" stroke-linecap="butt" stroke-linejoin="miter" stroke="rgb(0%, 39.213562%, 0%)" stroke-opacity="1" stroke-miterlimit="10" d="M -149.867156 144.402813 C -145.398406 145.855938 -142.957 150.652813 -144.406219 155.121563 C -145.546844 158.621563 -148.812469 160.996563 -152.496063 160.996563 " transform="matrix(1, 0, 0, -1, 170.582, 377.52)"/>
<path fill="none" stroke-width="0.3985" stroke-linecap="butt" stroke-linejoin="miter" stroke="rgb(0%, 0%, 0%)" stroke-opacity="1" stroke-miterlimit="10" d="M -146.062469 153.504375 L -142.124969 154.133281 " transform="matrix(1, 0, 0, -1, 170.582, 377.52)"/>
<path fill="none" stroke-width="0.99628" stroke-linecap="butt" stroke-linejoin="miter" stroke="rgb(0%, 39.213562%, 0%)" stroke-opacity="1" stroke-miterlimit="10" d="M -152.492156 201.383281 C -147.796844 201.383281 -143.98825 205.191875 -143.98825 209.887188 C -143.98825 213.570781 -146.36325 216.836406 -149.867156 217.977031 " transform="matrix(1, 0, 0, -1, 170.582, 377.52)"/>
<path fill="none" stroke-width="0.3985" stroke-linecap="butt" stroke-linejoin="miter" stroke="rgb(0%, 0%, 0%)" stroke-opacity="1" stroke-miterlimit="10" d="M -146.062469 208.86375 L -142.124969 208.242656 " transform="matrix(1, 0, 0, -1, 170.582, 377.52)"/>
<path fill="none" stroke-width="0.99628" stroke-linecap="butt" stroke-linejoin="miter" stroke="rgb(0%, 39.213562%, 0%)" stroke-opacity="1" stroke-miterlimit="10" d="M -137.386688 256.387188 C -132.917938 254.937969 -128.121063 257.379375 -126.671844 261.848125 C -125.531219 265.352031 -126.781219 269.187969 -129.757781 271.355938 " transform="matrix(1, 0, 0, -1, 170.582, 377.52)"/>
<path fill="none" stroke-width="0.3985" stroke-linecap="butt" stroke-linejoin="miter" stroke="rgb(0%, 0%, 0%)" stroke-opacity="1" stroke-miterlimit="10" d="M -128.957 261.512188 L -125.406219 259.7075 " transform="matrix(1, 0, 0, -1, 170.582, 377.52)"/>
<path fill="none" stroke-width="0.99628" stroke-linecap="butt" stroke-linejoin="miter" stroke="rgb(0%, 39.213562%, 0%)" stroke-opacity="1" stroke-miterlimit="10" d="M -106.0195 304.027813 C -102.218719 301.266094 -96.902313 302.109844 -94.140594 305.910625 C -91.976531 308.891094 -91.976531 312.92625 -94.140594 315.906719 " transform="matrix(1, 0, 0, -1, 170.582, 377.52)"/>
<path fill="none" stroke-width="0.3985" stroke-linecap="butt" stroke-linejoin="miter" stroke="rgb(0%, 0%, 0%)" stroke-opacity="1" stroke-miterlimit="10" d="M -96.421844 306.297344 L -93.601531 303.484844 " transform="matrix(1, 0, 0, -1, 170.582, 377.52)"/>
<path fill="none" stroke-width="0.99628" stroke-linecap="butt" stroke-linejoin="miter" stroke="rgb(0%, 39.213562%, 0%)" stroke-opacity="1" stroke-miterlimit="10" d="M -61.464813 339.645 C -58.707 335.848125 -53.386688 335.004375 -49.589813 337.766094 C -46.609344 339.930156 -45.359344 343.77 -46.499969 347.273906 " transform="matrix(1, 0, 0, -1, 170.582, 377.52)"/>
<path fill="none" stroke-width="0.3985" stroke-linecap="butt" stroke-linejoin="miter" stroke="rgb(0%, 0%, 0%)" stroke-opacity="1" stroke-miterlimit="10" d="M -51.632781 338.840313 L -49.824188 335.289531 " transform="matrix(1, 0, 0, -1, 170.582, 377.52)"/>
<path fill="none" stroke-width="0.99628" stroke-linecap="butt" stroke-linejoin="miter" stroke="rgb(0%, 39.213562%, 0%)" stroke-opacity="1" stroke-miterlimit="10" d="M -8.089813 359.754375 C -6.636688 355.285625 -1.839813 352.844219 2.625031 354.293438 C 6.128937 355.434063 8.503937 358.699688 8.503937 362.383281 " transform="matrix(1, 0, 0, -1, 170.582, 377.52)"/>
<path fill="none" stroke-width="0.3985" stroke-linecap="butt" stroke-linejoin="miter" stroke="rgb(0%, 0%, 0%)" stroke-opacity="1" stroke-miterlimit="10" d="M 1.01175 355.949688 L 1.640656 352.012188 " transform="matrix(1, 0, 0, -1, 170.582, 377.52)"/>
<path fill="none" stroke-width="0.99628" stroke-linecap="butt" stroke-linejoin="miter" stroke="rgb(0%, 39.213562%, 0%)" stroke-opacity="1" stroke-miterlimit="10" d="M 48.890656 362.379375 C 48.890656 357.684063 52.69925 353.875469 57.394562 353.875469 C 61.078156 353.875469 64.343781 356.250469 65.4805 359.754375 " transform="matrix(1, 0, 0, -1, 170.582, 377.52)"/>
<path fill="none" stroke-width="0.3985" stroke-linecap="butt" stroke-linejoin="miter" stroke="rgb(0%, 0%, 0%)" stroke-opacity="1" stroke-miterlimit="10" d="M 56.371125 355.949688 L 55.750031 352.012188 " transform="matrix(1, 0, 0, -1, 170.582, 377.52)"/>
<path fill="none" stroke-width="0.99628" stroke-linecap="butt" stroke-linejoin="miter" stroke="rgb(0%, 39.213562%, 0%)" stroke-opacity="1" stroke-miterlimit="10" d="M 103.894562 347.273906 C 102.441437 342.805156 104.88675 338.008281 109.3555 336.559063 C 112.859406 335.418438 116.695344 336.668438 118.863312 339.648906 " transform="matrix(1, 0, 0, -1, 170.582, 377.52)"/>
<path fill="none" stroke-width="0.3985" stroke-linecap="butt" stroke-linejoin="miter" stroke="rgb(0%, 0%, 0%)" stroke-opacity="1" stroke-miterlimit="10" d="M 109.019562 338.844219 L 107.214875 335.293438 " transform="matrix(1, 0, 0, -1, 170.582, 377.52)"/>
<path fill="none" stroke-width="0.99628" stroke-linecap="butt" stroke-linejoin="miter" stroke="rgb(0%, 39.213562%, 0%)" stroke-opacity="1" stroke-miterlimit="10" d="M 151.535187 315.906719 C 148.773469 312.109844 149.617219 306.789531 153.418 304.027813 C 156.394562 301.86375 160.433625 301.86375 163.414094 304.027813 " transform="matrix(1, 0, 0, -1, 170.582, 377.52)"/>
<path fill="none" stroke-width="0.3985" stroke-linecap="butt" stroke-linejoin="miter" stroke="rgb(0%, 0%, 0%)" stroke-opacity="1" stroke-miterlimit="10" d="M 153.804719 306.309063 L 150.992219 303.48875 " transform="matrix(1, 0, 0, -1, 170.582, 377.52)"/>
<path fill="none" stroke-width="0.99628" stroke-linecap="butt" stroke-linejoin="miter" stroke="rgb(0%, 39.213562%, 0%)" stroke-opacity="1" stroke-miterlimit="10" d="M 187.152375 271.352031 C 183.3555 268.594219 182.51175 263.273906 185.273469 259.477031 C 187.437531 256.496563 191.277375 255.246563 194.781281 256.387188 " transform="matrix(1, 0, 0, -1, 170.582, 377.52)"/>
<path fill="none" stroke-width="0.3985" stroke-linecap="butt" stroke-linejoin="miter" stroke="rgb(0%, 0%, 0%)" stroke-opacity="1" stroke-miterlimit="10" d="M 186.347687 261.523906 L 182.796906 259.711406 " transform="matrix(1, 0, 0, -1, 170.582, 377.52)"/>
<path fill="none" stroke-width="0.99628" stroke-linecap="butt" stroke-linejoin="miter" stroke="rgb(0%, 39.213562%, 0%)" stroke-opacity="1" stroke-miterlimit="10" d="M 207.26175 217.977031 C 202.793 216.523906 200.351594 211.727031 201.800812 207.262188 C 202.941437 203.758281 206.207062 201.383281 209.890656 201.383281 " transform="matrix(1, 0, 0, -1, 170.582, 377.52)"/>
<path fill="none" stroke-width="0.3985" stroke-linecap="butt" stroke-linejoin="miter" stroke="rgb(0%, 0%, 0%)" stroke-opacity="1" stroke-miterlimit="10" d="M 203.457062 208.875469 L 199.519562 208.246563 " transform="matrix(1, 0, 0, -1, 170.582, 377.52)"/>
<path fill="none" stroke-width="0.99628" stroke-linecap="butt" stroke-linejoin="miter" stroke="rgb(0%, 39.213562%, 0%)" stroke-opacity="1" stroke-miterlimit="10" d="M 209.88675 160.996563 C 205.191437 160.996563 201.382844 157.187969 201.382844 152.492656 C 201.382844 148.809063 203.757844 145.543438 207.257844 144.406719 " transform="matrix(1, 0, 0, -1, 170.582, 377.52)"/>
<path fill="none" stroke-width="0.3985" stroke-linecap="butt" stroke-linejoin="miter" stroke="rgb(0%, 0%, 0%)" stroke-opacity="1" stroke-miterlimit="10" d="M 203.457062 153.516094 L 199.519562 154.137188 " transform="matrix(1, 0, 0, -1, 170.582, 377.52)"/>
<path fill="none" stroke-width="0.99628" stroke-linecap="butt" stroke-linejoin="miter" stroke="rgb(0%, 39.213562%, 0%)" stroke-opacity="1" stroke-miterlimit="10" d="M 194.781281 105.992656 C 190.312531 107.445781 185.515656 105.000469 184.066437 100.531719 C 182.925812 97.027813 184.175812 93.191875 187.152375 91.023906 " transform="matrix(1, 0, 0, -1, 170.582, 377.52)"/>
<path fill="none" stroke-width="0.3985" stroke-linecap="butt" stroke-linejoin="miter" stroke="rgb(0%, 0%, 0%)" stroke-opacity="1" stroke-miterlimit="10" d="M 186.351594 100.867656 L 182.800812 102.672344 " transform="matrix(1, 0, 0, -1, 170.582, 377.52)"/>
<path fill="none" stroke-width="0.99628" stroke-linecap="butt" stroke-linejoin="miter" stroke="rgb(0%, 39.213562%, 0%)" stroke-opacity="1" stroke-miterlimit="10" d="M 163.414094 58.352031 C 159.613312 61.11375 154.296906 60.27 151.535187 56.469219 C 149.371125 53.492656 149.371125 49.453594 151.535187 46.473125 " transform="matrix(1, 0, 0, -1, 170.582, 377.52)"/>
<path fill="none" stroke-width="0.3985" stroke-linecap="butt" stroke-linejoin="miter" stroke="rgb(0%, 0%, 0%)" stroke-opacity="1" stroke-miterlimit="10" d="M 153.816437 56.0825 L 150.996125 58.895 " transform="matrix(1, 0, 0, -1, 170.582, 377.52)"/>
<path fill="none" stroke-width="0.99628" stroke-linecap="butt" stroke-linejoin="miter" stroke="rgb(0%, 39.213562%, 0%)" stroke-opacity="1" stroke-miterlimit="10" d="M 118.859406 22.734844 C 116.101594 26.531719 110.781281 27.375469 106.984406 24.61375 C 104.003937 22.449688 102.753937 18.609844 103.894562 15.105938 " transform="matrix(1, 0, 0, -1, 170.582, 377.52)"/>
<path fill="none" stroke-width="0.3985" stroke-linecap="butt" stroke-linejoin="miter" stroke="rgb(0%, 0%, 0%)" stroke-opacity="1" stroke-miterlimit="10" d="M 109.027375 23.539531 L 107.218781 27.090313 " transform="matrix(1, 0, 0, -1, 170.582, 377.52)"/>
<path fill="none" stroke-width="0.3985" stroke-linecap="butt" stroke-linejoin="miter" stroke="rgb(0%, 0%, 0%)" stroke-opacity="1" stroke-miterlimit="10" d="M 30.691437 2.98875 L 30.691437 -2.987812 M 26.707062 2.98875 L 26.707062 -2.987812 " transform="matrix(1, 0, 0, -1, 170.582, 377.52)"/>
<path fill="none" stroke-width="0.3985" stroke-linecap="butt" stroke-linejoin="miter" stroke="rgb(0%, 0%, 0%)" stroke-opacity="1" stroke-miterlimit="10" d="M 85.652375 12.320781 L 87.500031 6.637188 M 81.863312 11.090313 L 83.710969 5.406719 " transform="matrix(1, 0, 0, -1, 170.582, 377.52)"/>
<path fill="none" stroke-width="0.3985" stroke-linecap="butt" stroke-linejoin="miter" stroke="rgb(0%, 0%, 0%)" stroke-opacity="1" stroke-miterlimit="10" d="M 135.031281 38.17625 L 138.543 33.340313 M 131.804719 35.8325 L 135.320344 30.996563 " transform="matrix(1, 0, 0, -1, 170.582, 377.52)"/>
<path fill="none" stroke-width="0.3985" stroke-linecap="butt" stroke-linejoin="miter" stroke="rgb(0%, 0%, 0%)" stroke-opacity="1" stroke-miterlimit="10" d="M 174.019562 78.031719 L 178.8555 74.52 M 171.675812 74.809063 L 176.51175 71.297344 " transform="matrix(1, 0, 0, -1, 170.582, 377.52)"/>
<path fill="none" stroke-width="0.3985" stroke-linecap="butt" stroke-linejoin="miter" stroke="rgb(0%, 0%, 0%)" stroke-opacity="1" stroke-miterlimit="10" d="M 198.789094 128.008281 L 204.476594 126.164531 M 197.558625 124.219219 L 203.246125 122.371563 " transform="matrix(1, 0, 0, -1, 170.582, 377.52)"/>
<path fill="none" stroke-width="0.3985" stroke-linecap="butt" stroke-linejoin="miter" stroke="rgb(0%, 0%, 0%)" stroke-opacity="1" stroke-miterlimit="10" d="M 206.898469 183.184063 L 212.875031 183.184063 M 206.898469 179.199688 L 212.875031 179.199688 " transform="matrix(1, 0, 0, -1, 170.582, 377.52)"/>
<path fill="none" stroke-width="0.3985" stroke-linecap="butt" stroke-linejoin="miter" stroke="rgb(0%, 0%, 0%)" stroke-opacity="1" stroke-miterlimit="10" d="M 197.562531 238.145 L 203.250031 239.992656 M 198.796906 234.355938 L 204.4805 236.203594 " transform="matrix(1, 0, 0, -1, 170.582, 377.52)"/>
<path fill="none" stroke-width="0.3985" stroke-linecap="butt" stroke-linejoin="miter" stroke="rgb(0%, 0%, 0%)" stroke-opacity="1" stroke-miterlimit="10" d="M 171.710969 287.523906 L 176.546906 291.035625 M 174.054719 284.297344 L 178.890656 287.812969 " transform="matrix(1, 0, 0, -1, 170.582, 377.52)"/>
<path fill="none" stroke-width="0.3985" stroke-linecap="butt" stroke-linejoin="miter" stroke="rgb(0%, 0%, 0%)" stroke-opacity="1" stroke-miterlimit="10" d="M 131.8555 326.512188 L 135.367219 331.348125 M 135.078156 324.168438 L 138.589875 329.004375 " transform="matrix(1, 0, 0, -1, 170.582, 377.52)"/>
<path fill="none" stroke-width="0.3985" stroke-linecap="butt" stroke-linejoin="miter" stroke="rgb(0%, 0%, 0%)" stroke-opacity="1" stroke-miterlimit="10" d="M 81.878937 351.281719 L 83.722687 356.969219 M 85.668 350.05125 L 87.515656 355.73875 " transform="matrix(1, 0, 0, -1, 170.582, 377.52)"/>
<path fill="none" stroke-width="0.3985" stroke-linecap="butt" stroke-linejoin="miter" stroke="rgb(0%, 0%, 0%)" stroke-opacity="1" stroke-miterlimit="10" d="M 26.703156 359.391094 L 26.703156 365.367656 M 30.687531 359.391094 L 30.687531 365.367656 " transform="matrix(1, 0, 0, -1, 170.582, 377.52)"/>
<path fill="none" stroke-width="0.3985" stroke-linecap="butt" stroke-linejoin="miter" stroke="rgb(0%, 0%, 0%)" stroke-opacity="1" stroke-miterlimit="10" d="M -28.257781 350.059063 L -30.105438 355.742656 M -24.468719 351.289531 L -26.316375 356.973125 " transform="matrix(1, 0, 0, -1, 170.582, 377.52)"/>
<path fill="none" stroke-width="0.3985" stroke-linecap="butt" stroke-linejoin="miter" stroke="rgb(0%, 0%, 0%)" stroke-opacity="1" stroke-miterlimit="10" d="M -77.636688 324.203594 L -81.148406 329.039531 M -74.410125 326.547344 L -77.92575 331.383281 " transform="matrix(1, 0, 0, -1, 170.582, 377.52)"/>
<path fill="none" stroke-width="0.3985" stroke-linecap="butt" stroke-linejoin="miter" stroke="rgb(0%, 0%, 0%)" stroke-opacity="1" stroke-miterlimit="10" d="M -116.624969 284.348125 L -121.460906 287.859844 M -114.281219 287.570781 L -119.117156 291.0825 " transform="matrix(1, 0, 0, -1, 170.582, 377.52)"/>
<path fill="none" stroke-width="0.3985" stroke-linecap="butt" stroke-linejoin="miter" stroke="rgb(0%, 0%, 0%)" stroke-opacity="1" stroke-miterlimit="10" d="M -141.3945 234.371563 L -147.082 236.215313 M -140.164031 238.160625 L -145.851531 240.008281 " transform="matrix(1, 0, 0, -1, 170.582, 377.52)"/>
<path fill="none" stroke-width="0.3985" stroke-linecap="butt" stroke-linejoin="miter" stroke="rgb(0%, 0%, 0%)" stroke-opacity="1" stroke-miterlimit="10" d="M -149.503875 179.195781 L -155.480438 179.195781 M -149.503875 183.180156 L -155.480438 183.180156 " transform="matrix(1, 0, 0, -1, 170.582, 377.52)"/>
<path fill="none" stroke-width="0.3985" stroke-linecap="butt" stroke-linejoin="miter" stroke="rgb(0%, 0%, 0%)" stroke-opacity="1" stroke-miterlimit="10" d="M -140.167938 124.234844 L -145.855438 122.387188 M -141.402313 128.023906 L -147.085906 126.17625 " transform="matrix(1, 0, 0, -1, 170.582, 377.52)"/>
<path fill="none" stroke-width="0.3985" stroke-linecap="butt" stroke-linejoin="miter" stroke="rgb(0%, 0%, 0%)" stroke-opacity="1" stroke-miterlimit="10" d="M -114.316375 74.855938 L -119.152313 71.344219 M -116.660125 78.0825 L -121.496063 74.566875 " transform="matrix(1, 0, 0, -1, 170.582, 377.52)"/>
<path fill="none" stroke-width="0.3985" stroke-linecap="butt" stroke-linejoin="miter" stroke="rgb(0%, 0%, 0%)" stroke-opacity="1" stroke-miterlimit="10" d="M -74.460906 35.867656 L -77.972625 31.031719 M -77.683563 38.211406 L -81.195281 33.375469 " transform="matrix(1, 0, 0, -1, 170.582, 377.52)"/>
<path fill="none" stroke-width="0.3985" stroke-linecap="butt" stroke-linejoin="miter" stroke="rgb(0%, 0%, 0%)" stroke-opacity="1" stroke-miterlimit="10" d="M -24.484344 11.098125 L -26.328094 5.410625 M -28.273406 12.328594 L -30.121063 6.645 " transform="matrix(1, 0, 0, -1, 170.582, 377.52)"/>
<g fill="rgb(0%, 0%, 0%)" fill-opacity="1">
<use xlink:href="#glyph-2-0" x="217.537" y="360.409"/>
<use xlink:href="#glyph-2-1" x="221.272975" y="360.409"/>
<use xlink:href="#glyph-2-2" x="225.00895" y="360.409"/>
</g>
<g fill="rgb(0%, 0%, 0%)" fill-opacity="1">
<use xlink:href="#glyph-3-0" x="228.745" y="357.697"/>
</g>
<g fill="rgb(0%, 0%, 0%)" fill-opacity="1">
<use xlink:href="#glyph-2-0" x="166.378" y="360.407"/>
<use xlink:href="#glyph-2-1" x="170.113975" y="360.407"/>
<use xlink:href="#glyph-2-2" x="173.84995" y="360.407"/>
</g>
<g fill="rgb(0%, 0%, 0%)" fill-opacity="1">
<use xlink:href="#glyph-3-0" x="177.586" y="357.69575"/>
</g>
<g fill="rgb(0%, 0%, 0%)" fill-opacity="1">
<use xlink:href="#glyph-2-0" x="117.723" y="344.6"/>
<use xlink:href="#glyph-2-1" x="121.458975" y="344.6"/>
<use xlink:href="#glyph-2-2" x="125.19495" y="344.6"/>
</g>
<g fill="rgb(0%, 0%, 0%)" fill-opacity="1">
<use xlink:href="#glyph-3-0" x="128.931" y="341.88875"/>
</g>
<g fill="rgb(0%, 0%, 0%)" fill-opacity="1">
<use xlink:href="#glyph-2-0" x="76.337" y="314.53"/>
<use xlink:href="#glyph-2-1" x="80.072975" y="314.53"/>
<use xlink:href="#glyph-2-2" x="83.80895" y="314.53"/>
</g>
<g fill="rgb(0%, 0%, 0%)" fill-opacity="1">
<use xlink:href="#glyph-3-0" x="87.545" y="311.81875"/>
</g>
<g fill="rgb(0%, 0%, 0%)" fill-opacity="1">
<use xlink:href="#glyph-2-0" x="46.266" y="273.141"/>
<use xlink:href="#glyph-2-1" x="50.001975" y="273.141"/>
<use xlink:href="#glyph-2-2" x="53.73795" y="273.141"/>
</g>
<g fill="rgb(0%, 0%, 0%)" fill-opacity="1">
<use xlink:href="#glyph-3-0" x="57.474" y="270.42975"/>
</g>
<g fill="rgb(0%, 0%, 0%)" fill-opacity="1">
<use xlink:href="#glyph-2-0" x="30.456" y="224.488"/>
<use xlink:href="#glyph-2-1" x="34.191975" y="224.488"/>
<use xlink:href="#glyph-2-2" x="37.92795" y="224.488"/>
</g>
<g fill="rgb(0%, 0%, 0%)" fill-opacity="1">
<use xlink:href="#glyph-3-0" x="41.664" y="221.77675"/>
</g>
<g fill="rgb(0%, 0%, 0%)" fill-opacity="1">
<use xlink:href="#glyph-2-0" x="30.458" y="173.33"/>
<use xlink:href="#glyph-2-1" x="34.193975" y="173.33"/>
<use xlink:href="#glyph-2-2" x="37.92995" y="173.33"/>
</g>
<g fill="rgb(0%, 0%, 0%)" fill-opacity="1">
<use xlink:href="#glyph-3-0" x="41.666" y="170.61875"/>
</g>
<g fill="rgb(0%, 0%, 0%)" fill-opacity="1">
<use xlink:href="#glyph-2-0" x="46.265" y="124.675"/>
<use xlink:href="#glyph-2-1" x="50.000975" y="124.675"/>
<use xlink:href="#glyph-2-2" x="53.73695" y="124.675"/>
</g>
<g fill="rgb(0%, 0%, 0%)" fill-opacity="1">
<use xlink:href="#glyph-3-0" x="57.473" y="121.96375"/>
</g>
<g fill="rgb(0%, 0%, 0%)" fill-opacity="1">
<use xlink:href="#glyph-2-0" x="76.335" y="83.288"/>
<use xlink:href="#glyph-2-1" x="80.070975" y="83.288"/>
<use xlink:href="#glyph-2-2" x="83.80695" y="83.288"/>
</g>
<g fill="rgb(0%, 0%, 0%)" fill-opacity="1">
<use xlink:href="#glyph-3-0" x="87.543" y="80.57675"/>
</g>
<g fill="rgb(0%, 0%, 0%)" fill-opacity="1">
<use xlink:href="#glyph-2-0" x="117.724" y="53.217"/>
<use xlink:href="#glyph-2-1" x="121.459975" y="53.217"/>
<use xlink:href="#glyph-2-2" x="125.19595" y="53.217"/>
</g>
<g fill="rgb(0%, 0%, 0%)" fill-opacity="1">
<use xlink:href="#glyph-3-0" x="128.932" y="50.50575"/>
</g>
<g fill="rgb(0%, 0%, 0%)" fill-opacity="1">
<use xlink:href="#glyph-2-0" x="166.377" y="37.408"/>
<use xlink:href="#glyph-2-1" x="170.112975" y="37.408"/>
<use xlink:href="#glyph-2-2" x="173.84895" y="37.408"/>
</g>
<g fill="rgb(0%, 0%, 0%)" fill-opacity="1">
<use xlink:href="#glyph-3-0" x="177.585" y="34.69675"/>
</g>
<g fill="rgb(0%, 0%, 0%)" fill-opacity="1">
<use xlink:href="#glyph-2-0" x="217.535" y="37.41"/>
<use xlink:href="#glyph-2-1" x="221.270975" y="37.41"/>
<use xlink:href="#glyph-2-2" x="225.00695" y="37.41"/>
</g>
<g fill="rgb(0%, 0%, 0%)" fill-opacity="1">
<use xlink:href="#glyph-3-0" x="228.743" y="34.698"/>
</g>
<g fill="rgb(0%, 0%, 0%)" fill-opacity="1">
<use xlink:href="#glyph-2-0" x="266.19" y="53.217"/>
<use xlink:href="#glyph-2-1" x="269.925975" y="53.217"/>
<use xlink:href="#glyph-2-2" x="273.66195" y="53.217"/>
</g>
<g fill="rgb(0%, 0%, 0%)" fill-opacity="1">
<use xlink:href="#glyph-3-0" x="277.398" y="50.505"/>
</g>
<g fill="rgb(0%, 0%, 0%)" fill-opacity="1">
<use xlink:href="#glyph-2-0" x="307.577" y="83.287"/>
<use xlink:href="#glyph-2-1" x="311.312975" y="83.287"/>
<use xlink:href="#glyph-2-2" x="315.04895" y="83.287"/>
</g>
<g fill="rgb(0%, 0%, 0%)" fill-opacity="1">
<use xlink:href="#glyph-3-0" x="318.785" y="80.575"/>
</g>
<g fill="rgb(0%, 0%, 0%)" fill-opacity="1">
<use xlink:href="#glyph-2-0" x="337.648" y="124.676"/>
<use xlink:href="#glyph-2-1" x="341.383975" y="124.676"/>
<use xlink:href="#glyph-2-2" x="345.11995" y="124.676"/>
</g>
<g fill="rgb(0%, 0%, 0%)" fill-opacity="1">
<use xlink:href="#glyph-3-0" x="348.856" y="121.964"/>
</g>
<g fill="rgb(0%, 0%, 0%)" fill-opacity="1">
<use xlink:href="#glyph-2-0" x="353.457" y="173.328"/>
<use xlink:href="#glyph-2-1" x="357.192975" y="173.328"/>
<use xlink:href="#glyph-2-2" x="360.92895" y="173.328"/>
</g>
<g fill="rgb(0%, 0%, 0%)" fill-opacity="1">
<use xlink:href="#glyph-3-0" x="364.665" y="170.61675"/>
</g>
<g fill="rgb(0%, 0%, 0%)" fill-opacity="1">
<use xlink:href="#glyph-2-0" x="353.456" y="224.487"/>
<use xlink:href="#glyph-2-1" x="357.191975" y="224.487"/>
<use xlink:href="#glyph-2-2" x="360.92795" y="224.487"/>
</g>
<g fill="rgb(0%, 0%, 0%)" fill-opacity="1">
<use xlink:href="#glyph-3-0" x="364.664" y="221.775"/>
</g>
<g fill="rgb(0%, 0%, 0%)" fill-opacity="1">
<use xlink:href="#glyph-2-0" x="337.649" y="273.142"/>
<use xlink:href="#glyph-2-1" x="341.384975" y="273.142"/>
<use xlink:href="#glyph-2-2" x="345.12095" y="273.142"/>
</g>
<g fill="rgb(0%, 0%, 0%)" fill-opacity="1">
<use xlink:href="#glyph-3-0" x="348.857" y="270.43"/>
</g>
<g fill="rgb(0%, 0%, 0%)" fill-opacity="1">
<use xlink:href="#glyph-2-0" x="307.579" y="314.528"/>
<use xlink:href="#glyph-2-1" x="311.314975" y="314.528"/>
<use xlink:href="#glyph-2-2" x="315.05095" y="314.528"/>
</g>
<g fill="rgb(0%, 0%, 0%)" fill-opacity="1">
<use xlink:href="#glyph-3-0" x="318.787" y="311.81675"/>
</g>
<g fill="rgb(0%, 0%, 0%)" fill-opacity="1">
<use xlink:href="#glyph-2-0" x="266.189" y="344.599"/>
<use xlink:href="#glyph-2-1" x="269.924975" y="344.599"/>
<use xlink:href="#glyph-2-2" x="273.66095" y="344.599"/>
</g>
<g fill="rgb(0%, 0%, 0%)" fill-opacity="1">
<use xlink:href="#glyph-3-0" x="277.397" y="341.88775"/>
</g>
</svg>
