<?xml version="1.0" encoding="UTF-8"?>
<svg xmlns="http://www.w3.org/2000/svg" xmlns:xlink="http://www.w3.org/1999/xlink" width="186.829" height="98.163" viewBox="0 0 186.829 98.163">
<defs>
<g>
<g id="glyph-0-0">
<path d="M 3.96875 -6.9375 C 3.921875 -7.0625 3.890625 -7.140625 3.734375 -7.140625 C 3.578125 -7.140625 3.546875 -7.078125 3.5 -6.9375 L 1.4375 -0.984375 C 1.25 -0.46875 0.859375 -0.3125 0.3125 -0.3125 L 0.3125 0 C 0.546875 -0.015625 0.984375 -0.03125 1.328125 -0.03125 C 1.640625 -0.03125 2.15625 -0.015625 2.484375 0 L 2.484375 -0.3125 C 1.984375 -0.3125 1.734375 -0.5625 1.734375 -0.8125 C 1.734375 -0.84375 1.75 -0.953125 1.75 -0.96875 L 2.21875 -2.265625 L 4.671875 -2.265625 L 5.203125 -0.75 C 5.21875 -0.703125 5.234375 -0.640625 5.234375 -0.609375 C 5.234375 -0.3125 4.671875 -0.3125 4.40625 -0.3125 L 4.40625 0 C 4.765625 -0.03125 5.46875 -0.03125 5.84375 -0.03125 C 6.265625 -0.03125 6.734375 -0.015625 7.140625 0 L 7.140625 -0.3125 L 6.96875 -0.3125 C 6.375 -0.3125 6.234375 -0.375 6.125 -0.703125 Z M 3.4375 -5.828125 L 4.5625 -2.578125 L 2.328125 -2.578125 Z M 3.4375 -5.828125 "/>
</g>
<g id="glyph-0-1">
<path d="M 2.21875 -3.65625 L 2.21875 -6.09375 C 2.21875 -6.4375 2.234375 -6.5 2.703125 -6.5 L 3.9375 -6.5 C 4.90625 -6.5 5.25 -5.65625 5.25 -5.125 C 5.25 -4.484375 4.765625 -3.65625 3.65625 -3.65625 Z M 4.5625 -3.5625 C 5.53125 -3.75 6.21875 -4.390625 6.21875 -5.125 C 6.21875 -5.984375 5.296875 -6.8125 4 -6.8125 L 0.359375 -6.8125 L 0.359375 -6.5 L 0.59375 -6.5 C 1.359375 -6.5 1.390625 -6.390625 1.390625 -6.03125 L 1.390625 -0.78125 C 1.390625 -0.421875 1.359375 -0.3125 0.59375 -0.3125 L 0.359375 -0.3125 L 0.359375 0 L 4.265625 0 C 5.59375 0 6.484375 -0.890625 6.484375 -1.828125 C 6.484375 -2.6875 5.671875 -3.4375 4.5625 -3.5625 Z M 3.953125 -0.3125 L 2.703125 -0.3125 C 2.234375 -0.3125 2.21875 -0.375 2.21875 -0.703125 L 2.21875 -3.421875 L 4.09375 -3.421875 C 5.078125 -3.421875 5.5 -2.5 5.5 -1.828125 C 5.5 -1.125 4.96875 -0.3125 3.953125 -0.3125 Z M 3.953125 -0.3125 "/>
</g>
<g id="glyph-0-2">
<path d="M 5.515625 -6.78125 L 0.328125 -6.78125 L 0.328125 -6.46875 L 0.5625 -6.46875 C 1.328125 -6.46875 1.359375 -6.359375 1.359375 -6 L 1.359375 -0.78125 C 1.359375 -0.421875 1.328125 -0.3125 0.5625 -0.3125 L 0.328125 -0.3125 L 0.328125 0 C 0.671875 -0.03125 1.453125 -0.03125 1.84375 -0.03125 C 2.25 -0.03125 3.15625 -0.03125 3.515625 0 L 3.515625 -0.3125 L 3.1875 -0.3125 C 2.25 -0.3125 2.25 -0.4375 2.25 -0.78125 L 2.25 -6.078125 C 2.25 -6.40625 2.265625 -6.46875 2.734375 -6.46875 L 3.765625 -6.46875 C 5.1875 -6.46875 5.390625 -5.875 5.546875 -4.53125 L 5.796875 -4.53125 Z M 5.515625 -6.78125 "/>
</g>
<g id="glyph-0-3">
<path d="M 4.40625 -6.953125 C 4.34375 -7.09375 4.3125 -7.140625 4.140625 -7.140625 C 3.984375 -7.140625 3.953125 -7.09375 3.890625 -6.953125 L 0.515625 -0.203125 C 0.46875 -0.109375 0.46875 -0.09375 0.46875 -0.078125 C 0.46875 0 0.53125 0 0.6875 0 L 7.609375 0 C 7.765625 0 7.828125 0 7.828125 -0.078125 C 7.828125 -0.09375 7.828125 -0.109375 7.78125 -0.203125 Z M 3.828125 -6.140625 L 6.515625 -0.75 L 1.140625 -0.75 Z M 3.828125 -6.140625 "/>
</g>
<g id="glyph-0-4">
<path d="M 2.265625 -3.15625 L 3.953125 -3.15625 C 5.140625 -3.15625 6.21875 -3.953125 6.21875 -4.953125 C 6.21875 -5.9375 5.234375 -6.8125 3.875 -6.8125 L 0.34375 -6.8125 L 0.34375 -6.5 L 0.59375 -6.5 C 1.359375 -6.5 1.375 -6.390625 1.375 -6.03125 L 1.375 -0.78125 C 1.375 -0.421875 1.359375 -0.3125 0.59375 -0.3125 L 0.34375 -0.3125 L 0.34375 0 C 0.703125 -0.03125 1.4375 -0.03125 1.8125 -0.03125 C 2.1875 -0.03125 2.9375 -0.03125 3.296875 0 L 3.296875 -0.3125 L 3.046875 -0.3125 C 2.28125 -0.3125 2.265625 -0.421875 2.265625 -0.78125 Z M 2.234375 -3.40625 L 2.234375 -6.09375 C 2.234375 -6.4375 2.25 -6.5 2.71875 -6.5 L 3.609375 -6.5 C 5.1875 -6.5 5.1875 -5.4375 5.1875 -4.953125 C 5.1875 -4.484375 5.1875 -3.40625 3.609375 -3.40625 Z M 2.234375 -3.40625 "/>
</g>
<g id="glyph-0-5">
<path d="M 1.359375 -0.78125 C 1.359375 -0.421875 1.328125 -0.3125 0.5625 -0.3125 L 0.328125 -0.3125 L 0.328125 0 L 6.078125 0 L 6.5 -2.578125 L 6.25 -2.578125 C 6 -1.03125 5.765625 -0.3125 4.0625 -0.3125 L 2.734375 -0.3125 C 2.265625 -0.3125 2.25 -0.375 2.25 -0.703125 L 2.25 -3.375 L 3.140625 -3.375 C 4.109375 -3.375 4.21875 -3.046875 4.21875 -2.203125 L 4.46875 -2.203125 L 4.46875 -4.84375 L 4.21875 -4.84375 C 4.21875 -3.984375 4.109375 -3.671875 3.140625 -3.671875 L 2.25 -3.671875 L 2.25 -6.078125 C 2.25 -6.40625 2.265625 -6.46875 2.734375 -6.46875 L 4.015625 -6.46875 C 5.546875 -6.46875 5.8125 -5.921875 5.96875 -4.53125 L 6.21875 -4.53125 L 5.9375 -6.78125 L 0.328125 -6.78125 L 0.328125 -6.46875 L 0.5625 -6.46875 C 1.328125 -6.46875 1.359375 -6.359375 1.359375 -6 Z M 1.359375 -0.78125 "/>
</g>
<g id="glyph-0-6">
<path d="M 5.453125 -6.453125 C 5.515625 -6.5625 5.515625 -6.578125 5.515625 -6.65625 C 5.515625 -6.8125 5.46875 -6.8125 5.265625 -6.8125 L 0.796875 -6.8125 L 0.6875 -4.5625 L 0.9375 -4.5625 C 1 -5.6875 1.3125 -6.5 2.9375 -6.5 L 4.5 -6.5 L 0.625 -0.375 C 0.5625 -0.265625 0.5625 -0.25 0.5625 -0.171875 C 0.5625 0 0.609375 0 0.8125 0 L 5.40625 0 L 5.578125 -2.65625 L 5.328125 -2.65625 C 5.25 -1.28125 5.0625 -0.34375 3.21875 -0.34375 L 1.578125 -0.34375 Z M 5.453125 -6.453125 "/>
</g>
<g id="glyph-0-7">
<path d="M 6.109375 -6.03125 C 6.109375 -6.390625 6.125 -6.5 6.890625 -6.5 L 7.140625 -6.5 L 7.140625 -6.8125 C 6.78125 -6.78125 6.046875 -6.78125 5.671875 -6.78125 C 5.296875 -6.78125 4.546875 -6.78125 4.203125 -6.8125 L 4.203125 -6.5 L 4.4375 -6.5 C 5.203125 -6.5 5.21875 -6.390625 5.21875 -6.03125 L 5.21875 -3.703125 L 2.25 -3.703125 L 2.25 -6.03125 C 2.25 -6.390625 2.265625 -6.5 3.03125 -6.5 L 3.265625 -6.5 L 3.265625 -6.8125 C 2.921875 -6.78125 2.1875 -6.78125 1.796875 -6.78125 C 1.421875 -6.78125 0.671875 -6.78125 0.328125 -6.8125 L 0.328125 -6.5 L 0.5625 -6.5 C 1.328125 -6.5 1.359375 -6.390625 1.359375 -6.03125 L 1.359375 -0.78125 C 1.359375 -0.421875 1.328125 -0.3125 0.5625 -0.3125 L 0.328125 -0.3125 L 0.328125 0 C 0.671875 -0.03125 1.421875 -0.03125 1.796875 -0.03125 C 2.171875 -0.03125 2.921875 -0.03125 3.265625 0 L 3.265625 -0.3125 L 3.03125 -0.3125 C 2.265625 -0.3125 2.25 -0.421875 2.25 -0.78125 L 2.25 -3.390625 L 5.21875 -3.390625 L 5.21875 -0.78125 C 5.21875 -0.421875 5.203125 -0.3125 4.4375 -0.3125 L 4.203125 -0.3125 L 4.203125 0 C 4.546875 -0.03125 5.28125 -0.03125 5.65625 -0.03125 C 6.046875 -0.03125 6.78125 -0.03125 7.140625 0 L 7.140625 -0.3125 L 6.890625 -0.3125 C 6.125 -0.3125 6.109375 -0.421875 6.109375 -0.78125 Z M 6.109375 -6.03125 "/>
</g>
<g id="glyph-0-8">
<path d="M 7.1875 -3.375 C 7.1875 -5.40625 5.6875 -7.03125 3.875 -7.03125 C 2.078125 -7.03125 0.5625 -5.4375 0.5625 -3.375 C 0.5625 -1.328125 2.09375 0.21875 3.875 0.21875 C 5.6875 0.21875 7.1875 -1.359375 7.1875 -3.375 Z M 3.875 -0.015625 C 2.890625 -0.015625 1.53125 -0.875 1.53125 -3.375 C 1.53125 -5.9375 2.90625 -6.8125 3.875 -6.8125 C 4.875 -6.8125 6.21875 -5.90625 6.21875 -3.375 C 6.21875 -0.84375 4.8125 -0.015625 3.875 -0.015625 Z M 5.65625 -4.125 L 5.40625 -4.125 L 5.40625 -3.78125 L 2.34375 -3.78125 L 2.34375 -4.125 L 2.09375 -4.125 L 2.09375 -2.6875 L 2.34375 -2.6875 L 2.34375 -3.03125 L 5.40625 -3.03125 L 5.40625 -2.6875 L 5.65625 -2.6875 Z M 5.65625 -4.125 "/>
</g>
<g id="glyph-1-0">
<path d="M 2.328125 -4.4375 C 2.328125 -4.625 2.328125 -4.625 2.125 -4.625 C 1.671875 -4.1875 1.046875 -4.1875 0.765625 -4.1875 L 0.765625 -3.9375 C 0.921875 -3.9375 1.390625 -3.9375 1.765625 -4.125 L 1.765625 -0.578125 C 1.765625 -0.34375 1.765625 -0.25 1.078125 -0.25 L 0.8125 -0.25 L 0.8125 0 C 0.9375 0 1.796875 -0.03125 2.046875 -0.03125 C 2.265625 -0.03125 3.140625 0 3.296875 0 L 3.296875 -0.25 L 3.03125 -0.25 C 2.328125 -0.25 2.328125 -0.34375 2.328125 -0.578125 Z M 2.328125 -4.4375 "/>
</g>
<g id="glyph-1-1">
<path d="M 3.515625 -1.265625 L 3.28125 -1.265625 C 3.265625 -1.109375 3.1875 -0.703125 3.09375 -0.640625 C 3.046875 -0.59375 2.515625 -0.59375 2.40625 -0.59375 L 1.125 -0.59375 C 1.859375 -1.234375 2.109375 -1.4375 2.515625 -1.765625 C 3.03125 -2.171875 3.515625 -2.609375 3.515625 -3.265625 C 3.515625 -4.109375 2.78125 -4.625 1.890625 -4.625 C 1.03125 -4.625 0.4375 -4.015625 0.4375 -3.375 C 0.4375 -3.03125 0.734375 -2.984375 0.8125 -2.984375 C 0.96875 -2.984375 1.171875 -3.109375 1.171875 -3.359375 C 1.171875 -3.484375 1.125 -3.734375 0.765625 -3.734375 C 0.984375 -4.21875 1.453125 -4.375 1.78125 -4.375 C 2.484375 -4.375 2.84375 -3.828125 2.84375 -3.265625 C 2.84375 -2.65625 2.40625 -2.1875 2.1875 -1.9375 L 0.515625 -0.265625 C 0.4375 -0.203125 0.4375 -0.1875 0.4375 0 L 3.3125 0 Z M 3.515625 -1.265625 "/>
</g>
</g>
<clipPath id="clip-0">
<path clip-rule="nonzero" d="M 85 0 L 149 0 L 149 98.164062 L 85 98.164062 Z M 85 0 "/>
</clipPath>
</defs>
<path fill-rule="nonzero" fill="rgb(100%, 100%, 100%)" fill-opacity="1" d="M 14.3125 84.515625 L 138.332031 84.515625 L 173.765625 13.648438 L 49.746094 13.648438 Z M 14.3125 84.515625 "/>
<path fill-rule="nonzero" fill="rgb(59.999084%, 19.999695%, 0%)" fill-opacity="0.2" d="M 109.984375 63.253906 L 134.789062 13.648438 L 49.746094 13.648438 L 24.941406 63.253906 Z M 109.984375 63.253906 "/>
<path fill-rule="nonzero" fill="rgb(0%, 39.213562%, 0%)" fill-opacity="0.2" d="M 99.351562 84.515625 L 138.332031 84.515625 L 148.960938 63.253906 L 109.984375 63.253906 Z M 99.351562 84.515625 "/>
<path fill-rule="nonzero" fill="rgb(35.293579%, 51.763916%, 74.900818%)" fill-opacity="0.3" d="M 14.3125 84.515625 L 109.984375 63.253906 L 173.765625 13.648438 L 78.09375 34.90625 Z M 14.3125 84.515625 "/>
<path fill="none" stroke-width="0.99628" stroke-linecap="round" stroke-linejoin="round" stroke="rgb(0%, 0%, 0%)" stroke-opacity="1" stroke-miterlimit="10" d="M 0.0005 -0.000625 L 124.020031 -0.000625 L 159.453625 70.866563 L 35.434094 70.866563 Z M 0.0005 -0.000625 " transform="matrix(1, 0, 0, -1, 14.312, 84.515)"/>
<path fill="none" stroke-width="0.99628" stroke-linecap="round" stroke-linejoin="round" stroke="rgb(35.293579%, 51.763916%, 74.900818%)" stroke-opacity="1" stroke-miterlimit="10" d="M 0.0005 -0.000625 L 95.672375 21.261094 L 159.453625 70.866563 L 63.78175 49.60875 Z M 0.0005 -0.000625 " transform="matrix(1, 0, 0, -1, 14.312, 84.515)"/>
<path fill="none" stroke-width="0.99628" stroke-linecap="round" stroke-linejoin="miter" stroke="rgb(0%, 0%, 0%)" stroke-opacity="1" stroke-miterlimit="10" d="M 134.648937 21.261094 L 10.629406 21.261094 " transform="matrix(1, 0, 0, -1, 14.312, 84.515)"/>
<g clip-path="url(#clip-0)">
<path fill="none" stroke-width="0.99628" stroke-linecap="round" stroke-linejoin="miter" stroke="rgb(0%, 0%, 0%)" stroke-opacity="1" stroke-miterlimit="10" d="M 120.477063 70.866563 L 85.039563 -0.000625 " transform="matrix(1, 0, 0, -1, 14.312, 84.515)"/>
</g>
<path fill-rule="nonzero" fill="rgb(0%, 0%, 0%)" fill-opacity="1" stroke-width="0.3985" stroke-linecap="butt" stroke-linejoin="miter" stroke="rgb(0%, 0%, 0%)" stroke-opacity="1" stroke-miterlimit="10" d="M 1.492687 -0.000625 C 1.492687 0.823594 0.824719 1.495469 0.0005 1.495469 C -0.823719 1.495469 -1.495594 0.823594 -1.495594 -0.000625 C -1.495594 -0.824844 -0.823719 -1.492812 0.0005 -1.492812 C 0.824719 -1.492812 1.492687 -0.824844 1.492687 -0.000625 Z M 1.492687 -0.000625 " transform="matrix(1, 0, 0, -1, 14.312, 84.515)"/>
<path fill-rule="nonzero" fill="rgb(0%, 0%, 0%)" fill-opacity="1" stroke-width="0.3985" stroke-linecap="butt" stroke-linejoin="miter" stroke="rgb(0%, 0%, 0%)" stroke-opacity="1" stroke-miterlimit="10" d="M 125.512219 -0.000625 C 125.512219 0.823594 124.84425 1.495469 124.020031 1.495469 C 123.191906 1.495469 122.523938 0.823594 122.523938 -0.000625 C 122.523938 -0.824844 123.191906 -1.492812 124.020031 -1.492812 C 124.84425 -1.492812 125.512219 -0.824844 125.512219 -0.000625 Z M 125.512219 -0.000625 " transform="matrix(1, 0, 0, -1, 14.312, 84.515)"/>
<path fill-rule="nonzero" fill="rgb(0%, 0%, 0%)" fill-opacity="1" stroke-width="0.3985" stroke-linecap="butt" stroke-linejoin="miter" stroke="rgb(0%, 0%, 0%)" stroke-opacity="1" stroke-miterlimit="10" d="M 160.945812 70.866563 C 160.945812 71.694688 160.277844 72.362656 159.453625 72.362656 C 158.6255 72.362656 157.957531 71.694688 157.957531 70.866563 C 157.957531 70.042344 158.6255 69.374375 159.453625 69.374375 C 160.277844 69.374375 160.945812 70.042344 160.945812 70.866563 Z M 160.945812 70.866563 " transform="matrix(1, 0, 0, -1, 14.312, 84.515)"/>
<path fill-rule="nonzero" fill="rgb(0%, 0%, 0%)" fill-opacity="1" stroke-width="0.3985" stroke-linecap="butt" stroke-linejoin="miter" stroke="rgb(0%, 0%, 0%)" stroke-opacity="1" stroke-miterlimit="10" d="M 36.926281 70.866563 C 36.926281 71.694688 36.258313 72.362656 35.434094 72.362656 C 34.609875 72.362656 33.938 71.694688 33.938 70.866563 C 33.938 70.042344 34.609875 69.374375 35.434094 69.374375 C 36.258313 69.374375 36.926281 70.042344 36.926281 70.866563 Z M 36.926281 70.866563 " transform="matrix(1, 0, 0, -1, 14.312, 84.515)"/>
<path fill-rule="nonzero" fill="rgb(0%, 0%, 0%)" fill-opacity="1" stroke-width="0.3985" stroke-linecap="butt" stroke-linejoin="miter" stroke="rgb(0%, 0%, 0%)" stroke-opacity="1" stroke-miterlimit="10" d="M 97.164563 21.261094 C 97.164563 22.085313 96.496594 22.753281 95.672375 22.753281 C 94.84425 22.753281 94.176281 22.085313 94.176281 21.261094 C 94.176281 20.436875 94.84425 19.765 95.672375 19.765 C 96.496594 19.765 97.164563 20.436875 97.164563 21.261094 Z M 97.164563 21.261094 " transform="matrix(1, 0, 0, -1, 14.312, 84.515)"/>
<path fill-rule="nonzero" fill="rgb(0%, 0%, 0%)" fill-opacity="1" stroke-width="0.3985" stroke-linecap="butt" stroke-linejoin="miter" stroke="rgb(0%, 0%, 0%)" stroke-opacity="1" stroke-miterlimit="10" d="M 65.277844 49.60875 C 65.277844 50.432969 64.605969 51.100938 63.78175 51.100938 C 62.957531 51.100938 62.289563 50.432969 62.289563 49.60875 C 62.289563 48.784531 62.957531 48.112656 63.78175 48.112656 C 64.605969 48.112656 65.277844 48.784531 65.277844 49.60875 Z M 65.277844 49.60875 " transform="matrix(1, 0, 0, -1, 14.312, 84.515)"/>
<path fill-rule="nonzero" fill="rgb(0%, 0%, 0%)" fill-opacity="1" stroke-width="0.3985" stroke-linecap="butt" stroke-linejoin="miter" stroke="rgb(0%, 0%, 0%)" stroke-opacity="1" stroke-miterlimit="10" d="M 136.145031 21.261094 C 136.145031 22.085313 135.473156 22.753281 134.648937 22.753281 C 133.824719 22.753281 133.15675 22.085313 133.15675 21.261094 C 133.15675 20.436875 133.824719 19.765 134.648937 19.765 C 135.473156 19.765 136.145031 20.436875 136.145031 21.261094 Z M 136.145031 21.261094 " transform="matrix(1, 0, 0, -1, 14.312, 84.515)"/>
<path fill-rule="nonzero" fill="rgb(0%, 0%, 0%)" fill-opacity="1" stroke-width="0.3985" stroke-linecap="butt" stroke-linejoin="miter" stroke="rgb(0%, 0%, 0%)" stroke-opacity="1" stroke-miterlimit="10" d="M 121.96925 70.866563 C 121.96925 71.694688 121.301281 72.362656 120.477063 72.362656 C 119.648938 72.362656 118.980969 71.694688 118.980969 70.866563 C 118.980969 70.042344 119.648938 69.374375 120.477063 69.374375 C 121.301281 69.374375 121.96925 70.042344 121.96925 70.866563 Z M 121.96925 70.866563 " transform="matrix(1, 0, 0, -1, 14.312, 84.515)"/>
<path fill-rule="nonzero" fill="rgb(0%, 0%, 0%)" fill-opacity="1" stroke-width="0.3985" stroke-linecap="butt" stroke-linejoin="miter" stroke="rgb(0%, 0%, 0%)" stroke-opacity="1" stroke-miterlimit="10" d="M 86.535656 -0.000625 C 86.535656 0.823594 85.867688 1.495469 85.039563 1.495469 C 84.215344 1.495469 83.547375 0.823594 83.547375 -0.000625 C 83.547375 -0.824844 84.215344 -1.492812 85.039563 -1.492812 C 85.867688 -1.492812 86.535656 -0.824844 86.535656 -0.000625 Z M 86.535656 -0.000625 " transform="matrix(1, 0, 0, -1, 14.312, 84.515)"/>
<path fill-rule="nonzero" fill="rgb(0%, 0%, 0%)" fill-opacity="1" stroke-width="0.3985" stroke-linecap="butt" stroke-linejoin="miter" stroke="rgb(0%, 0%, 0%)" stroke-opacity="1" stroke-miterlimit="10" d="M 12.1255 21.261094 C 12.1255 22.085313 11.453625 22.753281 10.629406 22.753281 C 9.805187 22.753281 9.137219 22.085313 9.137219 21.261094 C 9.137219 20.436875 9.805187 19.765 10.629406 19.765 C 11.453625 19.765 12.1255 20.436875 12.1255 21.261094 Z M 12.1255 21.261094 " transform="matrix(1, 0, 0, -1, 14.312, 84.515)"/>
<g fill="rgb(0%, 0%, 0%)" fill-opacity="1">
<use xlink:href="#glyph-0-0" x="3.32" y="94.843"/>
</g>
<g fill="rgb(0%, 0%, 0%)" fill-opacity="1">
<use xlink:href="#glyph-0-1" x="141.849" y="94.843"/>
</g>
<g fill="rgb(0%, 0%, 0%)" fill-opacity="1">
<use xlink:href="#glyph-0-2" x="177.282" y="10.129"/>
</g>
<g fill="rgb(0%, 0%, 0%)" fill-opacity="1">
<use xlink:href="#glyph-0-3" x="37.923" y="10.129"/>
</g>
<g fill="rgb(0%, 0%, 0%)" fill-opacity="1">
<use xlink:href="#glyph-0-4" x="113.502" y="73.582"/>
</g>
<g fill="rgb(0%, 0%, 0%)" fill-opacity="1">
<use xlink:href="#glyph-1-0" x="120.282" y="75.077"/>
</g>
<g fill="rgb(0%, 0%, 0%)" fill-opacity="1">
<use xlink:href="#glyph-0-4" x="63.324" y="29.893"/>
</g>
<g fill="rgb(0%, 0%, 0%)" fill-opacity="1">
<use xlink:href="#glyph-1-1" x="70.104" y="31.388"/>
</g>
<g fill="rgb(0%, 0%, 0%)" fill-opacity="1">
<use xlink:href="#glyph-0-5" x="152.48" y="66.659"/>
</g>
<g fill="rgb(0%, 0%, 0%)" fill-opacity="1">
<use xlink:href="#glyph-0-6" x="131.742" y="10.128"/>
</g>
<g fill="rgb(0%, 0%, 0%)" fill-opacity="1">
<use xlink:href="#glyph-0-7" x="95.616" y="94.843"/>
</g>
<g fill="rgb(0%, 0%, 0%)" fill-opacity="1">
<use xlink:href="#glyph-0-8" x="13.674" y="66.659"/>
</g>
</svg>
