<?xml version="1.0" encoding="UTF-8"?>
<svg xmlns="http://www.w3.org/2000/svg" xmlns:xlink="http://www.w3.org/1999/xlink" width="186.829" height="98.163" viewBox="0 0 186.829 98.163">
<defs>
<g>
<g id="glyph-0-0">
<path d="M 3.96875 -6.9375 C 3.921875 -7.0625 3.890625 -7.140625 3.734375 -7.140625 C 3.578125 -7.140625 3.546875 -7.078125 3.5 -6.9375 L 1.4375 -0.984375 C 1.25 -0.46875 0.859375 -0.3125 0.3125 -0.3125 L 0.3125 0 C 0.546875 -0.015625 0.984375 -0.03125 1.328125 -0.03125 C 1.640625 -0.03125 2.15625 -0.015625 2.484375 0 L 2.484375 -0.3125 C 1.984375 -0.3125 1.734375 -0.5625 1.734375 -0.8125 C 1.734375 -0.84375 1.75 -0.953125 1.75 -0.96875 L 2.21875 -2.265625 L 4.671875 -2.265625 L 5.203125 -0.75 C 5.21875 -0.703125 5.234375 -0.640625 5.234375 -0.609375 C 5.234375 -0.3125 4.671875 -0.3125 4.40625 -0.3125 L 4.40625 0 C 4.765625 -0.03125 5.46875 -0.03125 5.84375 -0.03125 C 6.265625 -0.03125 6.734375 -0.015625 7.140625 0 L 7.140625 -0.3125 L 6.96875 -0.3125 C 6.375 -0.3125 6.234375 -0.375 6.125 -0.703125 Z M 3.4375 -5.828125 L 4.5625 -2.578125 L 2.328125 -2.578125 Z M 3.4375 -5.828125 "/>
</g>
<g id="glyph-0-1">
<path d="M 2.21875 -3.65625 L 2.21875 -6.09375 C 2.21875 -6.4375 2.234375 -6.5 2.703125 -6.5 L 3.9375 -6.5 C 4.90625 -6.5 5.25 -5.65625 5.25 -5.125 C 5.25 -4.484375 4.765625 -3.65625 3.65625 -3.65625 Z M 4.5625 -3.5625 C 5.53125 -3.75 6.21875 -4.390625 6.21875 -5.125 C 6.21875 -5.984375 5.296875 -6.8125 4 -6.8125 L 0.359375 -6.8125 L 0.359375 -6.5 L 0.59375 -6.5 C 1.359375 -6.5 1.390625 -6.390625 1.390625 -6.03125 L 1.390625 -0.78125 C 1.390625 -0.421875 1.359375 -0.3125 0.59375 -0.3125 L 0.359375 -0.3125 L 0.359375 0 L 4.265625 0 C 5.59375 0 6.484375 -0.890625 6.484375 -1.828125 C 6.484375 -2.6875 5.671875 -3.4375 4.5625 -3.5625 Z M 3.953125 -0.3125 L 2.703125 -0.3125 C 2.234375 -0.3125 2.21875 -0.375 2.21875 -0.703125 L 2.21875 -3.421875 L 4.09375 -3.421875 C 5.078125 -3.421875 5.5 -2.5 5.5 -1.828125 C 5.5 -1.125 4.96875 -0.3125 3.953125 -0.3125 Z M 3.953125 -0.3125 "/>
</g>
<g id="glyph-0-2">
<path d="M 5.515625 -6.78125 L 0.328125 -6.78125 L 0.328125 -6.46875 L 0.5625 -6.46875 C 1.328125 -6.46875 1.359375 -6.359375 1.359375 -6 L 1.359375 -0.78125 C 1.359375 -0.421875 1.328125 -0.3125 0.5625 -0.3125 L 0.328125 -0.3125 L 0.328125 0 C 0.671875 -0.03125 1.453125 -0.03125 1.84375 -0.03125 C 2.25 -0.03125 3.15625 -0.03125 3.515625 0 L 3.515625 -0.3125 L 3.1875 -0.3125 C 2.25 -0.3125 2.25 -0.4375 2.25 -0.78125 L 2.25 -6.078125 C 2.25 -6.40625 2.265625 -6.46875 2.734375 -6.46875 L 3.765625 -6.46875 C 5.1875 -6.46875 5.390625 -5.875 5.546875 -4.53125 L 5.796875 -4.53125 Z M 5.515625 -6.78125 "/>
</g>
<g id="glyph-0-3">
<path d="M 4.40625 -6.953125 C 4.34375 -7.09375 4.3125 -7.140625 4.140625 -7.140625 C 3.984375 -7.140625 3.953125 -7.09375 3.890625 -6.953125 L 0.515625 -0.203125 C 0.46875 -0.109375 0.46875 -0.09375 0.46875 -0.078125 C 0.46875 0 0.53125 0 0.6875 0 L 7.609375 0 C 7.765625 0 7.828125 0 7.828125 -0.078125 C 7.828125 -0.09375 7.828125 -0.109375 7.78125 -0.203125 Z M 3.828125 -6.140625 L 6.515625 -0.75 L 1.140625 -0.75 Z M 3.828125 -6.140625 "/>
</g>
<g id="glyph-0-4">
<path d="M 2.265625 -3.15625 L 3.953125 -3.15625 C 5.140625 -3.15625 6.21875 -3.953125 6.21875 -4.953125 C 6.21875 -5.9375 5.234375 -6.8125 3.875 -6.8125 L 0.34375 -6.8125 L 0.34375 -6.5 L 0.59375 -6.5 C 1.359375 -6.5 1.375 -6.390625 1.375 -6.03125 L 1.375 -0.78125 C 1.375 -0.421875 1.359375 -0.3125 0.59375 -0.3125 L 0.34375 -0.3125 L 0.34375 0 C 0.703125 -0.03125 1.4375 -0.03125 1.8125 -0.03125 C 2.1875 -0.03125 2.9375 -0.03125 3.296875 0 L 3.296875 -0.3125 L 3.046875 -0.3125 C 2.28125 -0.3125 2.265625 -0.421875 2.265625 -0.78125 Z M 2.234375 -3.40625 L 2.234375 -6.09375 C 2.234375 -6.4375 2.25 -6.5 2.71875 -6.5 L 3.609375 -6.5 C 5.1875 -6.5 5.1875 -5.4375 5.1875 -4.953125 C 5.1875 -4.484375 5.1875 -3.40625 3.609375 -3.40625 Z M 2.234375 -3.40625 "/>
</g>
<g id="glyph-0-5">
<path d="M 1.359375 -0.78125 C 1.359375 -0.421875 1.328125 -0.3125 0.5625 -0.3125 L 0.328125 -0.3125 L 0.328125 0 L 6.078125 0 L 6.5 -2.578125 L 6.25 -2.578125 C 6 -1.03125 5.765625 -0.3125 4.0625 -0.3125 L 2.734375 -0.3125 C 2.265625 -0.3125 2.25 -0.375 2.25 -0.703125 L 2.25 -3.375 L 3.140625 -3.375 C 4.109375 -3.375 4.21875 -3.046875 4.21875 -2.203125 L 4.46875 -2.203125 L 4.46875 -4.84375 L 4.21875 -4.84375 C 4.21875 -3.984375 4.109375 -3.671875 3.140625 -3.671875 L 2.25 -3.671875 L 2.25 -6.078125 C 2.25 -6.40625 2.265625 -6.46875 2.734375 -6.46875 L 4.015625 -6.46875 C 5.546875 -6.46875 5.8125 -5.921875 5.96875 -4.53125 L 6.21875 -4.53125 L 5.9375 -6.78125 L 0.328125 -6.78125 L 0.328125 -6.46875 L 0.5625 -6.46875 C 1.328125 -6.46875 1.359375 -6.359375 1.359375 -6 Z M 1.359375 -0.78125 "/>
</g>
<g id="glyph-0-6">
<path d="M 5.453125 -6.453125 C 5.515625 -6.5625 5.515625 -6.578125 5.515625 -6.65625 C 5.515625 -6.8125 5.46875 -6.8125 5.265625 -6.8125 L 0.796875 -6.8125 L 0.6875 -4.5625 L 0.9375 -4.5625 C 1 -5.6875 1.3125 -6.5 2.9375 -6.5 L 4.5 -6.5 L 0.625 -0.375 C 0.5625 -0.265625 0.5625 -0.25 0.5625 -0.171875 C 0.5625 0 0.609375 0 0.8125 0 L 5.40625 0 L 5.578125 -2.65625 L 5.328125 -2.65625 C 5.25 -1.28125 5.0625 -0.34375 3.21875 -0.34375 L 1.578125 -0.34375 Z M 5.453125 -6.453125 "/>
</g>
<g id="glyph-0-7">
<path d="M 6.109375 -6.03125 C 6.109375 -6.390625 6.125 -6.5 6.890625 -6.5 L 7.140625 -6.5 L 7.140625 -6.8125 C 6.78125 -6.78125 6.046875 -6.78125 5.671875 -6.78125 C 5.296875 -6.78125 4.546875 -6.78125 4.203125 -6.8125 L 4.203125 -6.5 L 4.4375 -6.5 C 5.203125 -6.5 5.21875 -6.390625 5.21875 -6.03125 L 5.21875 -3.703125 L 2.25 -3.703125 L 2.25 -6.03125 C 2.25 -6.390625 2.265625 -6.5 3.03125 -6.5 L 3.265625 -6.5 L 3.265625 -6.8125 C 2.921875 -6.78125 2.1875 -6.78125 1.796875 -6.78125 C 1.421875 -6.78125 0.671875 -6.78125 0.328125 -6.8125 L 0.328125 -6.5 L 0.5625 -6.5 C 1.328125 -6.5 1.359375 -6.390625 1.359375 -6.03125 L 1.359375 -0.78125 C 1.359375 -0.421875 1.328125 -0.3125 0.5625 -0.3125 L 0.328125 -0.3125 L 0.328125 0 C 0.671875 -0.03125 1.421875 -0.03125 1.796875 -0.03125 C 2.171875 -0.03125 2.921875 -0.03125 3.265625 0 L 3.265625 -0.3125 L 3.03125 -0.3125 C 2.265625 -0.3125 2.25 -0.421875 2.25 -0.78125 L 2.25 -3.390625 L 5.21875 -3.390625 L 5.21875 -0.78125 C 5.21875 -0.421875 5.203125 -0.3125 4.4375 -0.3125 L 4.203125 -0.3125 L 4.203125 0 C 4.546875 -0.03125 5.28125 -0.03125 5.65625 -0.03125 C 6.046875 -0.03125 6.78125 -0.03125 7.140625 0 L 7.140625 -0.3125 L 6.890625 -0.3125 C 6.125 -0.3125 6.109375 -0.421875 6.109375 -0.78125 Z M 6.109375 -6.03125 "/>
</g>
<g id="glyph-0-8">
<path d="M 7.1875 -3.375 C 7.1875 -5.40625 5.6875 -7.03125 3.875 -7.03125 C 2.078125 -7.03125 0.5625 -5.4375 0.5625 -3.375 C 0.5625 -1.328125 2.09375 0.21875 3.875 0.21875 C 5.6875 0.21875 7.1875 -1.359375 7.1875 -3.375 Z M 3.875 -0.015625 C 2.890625 -0.015625 1.53125 -0.875 1.53125 -3.375 C 1.53125 -5.9375 2.90625 -6.8125 3.875 -6.8125 C 4.875 -6.8125 6.21875 -5.90625 6.21875 -3.375 C 6.21875 -0.84375 4.8125 -0.015625 3.875 -0.015625 Z M 5.65625 -4.125 L 5.40625 -4.125 L 5.40625 -3.78125 L 2.34375 -3.78125 L 2.34375 -4.125 L 2.09375 -4.125 L 2.09375 -2.6875 L 2.34375 -2.6875 L 2.34375 -3.03125 L 5.40625 -3.03125 L 5.40625 -2.6875 L 5.65625 -2.6875 Z M 5.65625 -4.125 "/>
</g>
</g>
<clipPath id="clip-0">
<path clip-rule="nonzero" d="M 0 0 L 186.828125 0 L 186.828125 98.164062 L 0 98.164062 Z M 0 0 "/>
</clipPath>
<clipPath id="clip-1">
<path clip-rule="nonzero" d="M 49 0 L 114 0 L 114 98.164062 L 49 98.164062 Z M 49 0 "/>
</clipPath>
</defs>
<path fill-rule="nonzero" fill="rgb(100%, 100%, 100%)" fill-opacity="1" d="M 14.3125 84.515625 L 138.332031 84.515625 L 173.765625 13.648438 L 49.746094 13.648438 Z M 14.3125 84.515625 "/>
<path fill-rule="nonzero" fill="rgb(59.999084%, 19.999695%, 0%)" fill-opacity="0.2" d="M 14.3125 84.515625 L 28.484375 56.167969 L 152.503906 56.167969 L 138.332031 84.515625 Z M 14.3125 84.515625 "/>
<path fill-rule="nonzero" fill="rgb(0%, 39.213562%, 0%)" fill-opacity="0.2" d="M 14.3125 84.515625 L 63.917969 84.515625 L 99.351562 13.648438 L 49.746094 13.648438 Z M 14.3125 84.515625 "/>
<path fill="none" stroke-width="0.99628" stroke-linecap="round" stroke-linejoin="round" stroke="rgb(59.999084%, 19.999695%, 0%)" stroke-opacity="1" stroke-miterlimit="10" d="M 0.0005 -0.000625 L 124.020031 -0.000625 L 159.453625 70.866563 L 35.434094 70.866563 Z M 0.0005 -0.000625 " transform="matrix(1, 0, 0, -1, 14.312, 84.515)"/>
<g clip-path="url(#clip-0)">
<path fill="none" stroke-width="0.99628" stroke-linecap="round" stroke-linejoin="miter" stroke="rgb(0%, 0%, 0%)" stroke-opacity="1" stroke-miterlimit="10" d="M 0.0005 -0.000625 L 159.453625 70.866563 " transform="matrix(1, 0, 0, -1, 14.312, 84.515)"/>
</g>
<path fill="none" stroke-width="0.99628" stroke-linecap="round" stroke-linejoin="miter" stroke="rgb(0%, 0%, 0%)" stroke-opacity="1" stroke-miterlimit="10" d="M 138.191906 28.347031 L 14.172375 28.347031 " transform="matrix(1, 0, 0, -1, 14.312, 84.515)"/>
<g clip-path="url(#clip-1)">
<path fill="none" stroke-width="0.99628" stroke-linecap="round" stroke-linejoin="miter" stroke="rgb(0%, 0%, 0%)" stroke-opacity="1" stroke-miterlimit="10" d="M 85.039563 70.866563 L 49.605969 -0.000625 " transform="matrix(1, 0, 0, -1, 14.312, 84.515)"/>
</g>
<path fill-rule="nonzero" fill="rgb(0%, 0%, 0%)" fill-opacity="1" stroke-width="0.3985" stroke-linecap="butt" stroke-linejoin="miter" stroke="rgb(0%, 0%, 0%)" stroke-opacity="1" stroke-miterlimit="10" d="M 1.492687 -0.000625 C 1.492687 0.823594 0.824719 1.495469 0.0005 1.495469 C -0.823719 1.495469 -1.495594 0.823594 -1.495594 -0.000625 C -1.495594 -0.824844 -0.823719 -1.492812 0.0005 -1.492812 C 0.824719 -1.492812 1.492687 -0.824844 1.492687 -0.000625 Z M 1.492687 -0.000625 " transform="matrix(1, 0, 0, -1, 14.312, 84.515)"/>
<path fill-rule="nonzero" fill="rgb(0%, 0%, 0%)" fill-opacity="1" stroke-width="0.3985" stroke-linecap="butt" stroke-linejoin="miter" stroke="rgb(0%, 0%, 0%)" stroke-opacity="1" stroke-miterlimit="10" d="M 125.512219 -0.000625 C 125.512219 0.823594 124.84425 1.495469 124.020031 1.495469 C 123.191906 1.495469 122.523938 0.823594 122.523938 -0.000625 C 122.523938 -0.824844 123.191906 -1.492812 124.020031 -1.492812 C 124.84425 -1.492812 125.512219 -0.824844 125.512219 -0.000625 Z M 125.512219 -0.000625 " transform="matrix(1, 0, 0, -1, 14.312, 84.515)"/>
<path fill-rule="nonzero" fill="rgb(0%, 0%, 0%)" fill-opacity="1" stroke-width="0.3985" stroke-linecap="butt" stroke-linejoin="miter" stroke="rgb(0%, 0%, 0%)" stroke-opacity="1" stroke-miterlimit="10" d="M 160.945812 70.866563 C 160.945812 71.694688 160.277844 72.362656 159.453625 72.362656 C 158.6255 72.362656 157.957531 71.694688 157.957531 70.866563 C 157.957531 70.042344 158.6255 69.374375 159.453625 69.374375 C 160.277844 69.374375 160.945812 70.042344 160.945812 70.866563 Z M 160.945812 70.866563 " transform="matrix(1, 0, 0, -1, 14.312, 84.515)"/>
<path fill-rule="nonzero" fill="rgb(0%, 0%, 0%)" fill-opacity="1" stroke-width="0.3985" stroke-linecap="butt" stroke-linejoin="miter" stroke="rgb(0%, 0%, 0%)" stroke-opacity="1" stroke-miterlimit="10" d="M 36.926281 70.866563 C 36.926281 71.694688 36.258313 72.362656 35.434094 72.362656 C 34.609875 72.362656 33.938 71.694688 33.938 70.866563 C 33.938 70.042344 34.609875 69.374375 35.434094 69.374375 C 36.258313 69.374375 36.926281 70.042344 36.926281 70.866563 Z M 36.926281 70.866563 " transform="matrix(1, 0, 0, -1, 14.312, 84.515)"/>
<path fill-rule="nonzero" fill="rgb(0%, 0%, 0%)" fill-opacity="1" stroke-width="0.3985" stroke-linecap="butt" stroke-linejoin="miter" stroke="rgb(0%, 0%, 0%)" stroke-opacity="1" stroke-miterlimit="10" d="M 65.273938 28.347031 C 65.273938 29.17125 64.605969 29.839219 63.78175 29.839219 C 62.953625 29.839219 62.285656 29.17125 62.285656 28.347031 C 62.285656 27.522813 62.953625 26.850938 63.78175 26.850938 C 64.605969 26.850938 65.273938 27.522813 65.273938 28.347031 Z M 65.273938 28.347031 " transform="matrix(1, 0, 0, -1, 14.312, 84.515)"/>
<path fill-rule="nonzero" fill="rgb(0%, 0%, 0%)" fill-opacity="1" stroke-width="0.3985" stroke-linecap="butt" stroke-linejoin="miter" stroke="rgb(0%, 0%, 0%)" stroke-opacity="1" stroke-miterlimit="10" d="M 139.688 28.347031 C 139.688 29.17125 139.016125 29.839219 138.191906 29.839219 C 137.367687 29.839219 136.699719 29.17125 136.699719 28.347031 C 136.699719 27.522813 137.367687 26.850938 138.191906 26.850938 C 139.016125 26.850938 139.688 27.522813 139.688 28.347031 Z M 139.688 28.347031 " transform="matrix(1, 0, 0, -1, 14.312, 84.515)"/>
<path fill-rule="nonzero" fill="rgb(0%, 0%, 0%)" fill-opacity="1" stroke-width="0.3985" stroke-linecap="butt" stroke-linejoin="miter" stroke="rgb(0%, 0%, 0%)" stroke-opacity="1" stroke-miterlimit="10" d="M 86.535656 70.866563 C 86.535656 71.694688 85.867688 72.362656 85.039563 72.362656 C 84.215344 72.362656 83.547375 71.694688 83.547375 70.866563 C 83.547375 70.042344 84.215344 69.374375 85.039563 69.374375 C 85.867688 69.374375 86.535656 70.042344 86.535656 70.866563 Z M 86.535656 70.866563 " transform="matrix(1, 0, 0, -1, 14.312, 84.515)"/>
<path fill-rule="nonzero" fill="rgb(0%, 0%, 0%)" fill-opacity="1" stroke-width="0.3985" stroke-linecap="butt" stroke-linejoin="miter" stroke="rgb(0%, 0%, 0%)" stroke-opacity="1" stroke-miterlimit="10" d="M 51.102063 -0.000625 C 51.102063 0.823594 50.434094 1.495469 49.605969 1.495469 C 48.78175 1.495469 48.113781 0.823594 48.113781 -0.000625 C 48.113781 -0.824844 48.78175 -1.492812 49.605969 -1.492812 C 50.434094 -1.492812 51.102063 -0.824844 51.102063 -0.000625 Z M 51.102063 -0.000625 " transform="matrix(1, 0, 0, -1, 14.312, 84.515)"/>
<path fill-rule="nonzero" fill="rgb(0%, 0%, 0%)" fill-opacity="1" stroke-width="0.3985" stroke-linecap="butt" stroke-linejoin="miter" stroke="rgb(0%, 0%, 0%)" stroke-opacity="1" stroke-miterlimit="10" d="M 15.668469 28.347031 C 15.668469 29.17125 15.0005 29.839219 14.172375 29.839219 C 13.348156 29.839219 12.680187 29.17125 12.680187 28.347031 C 12.680187 27.522813 13.348156 26.850938 14.172375 26.850938 C 15.0005 26.850938 15.668469 27.522813 15.668469 28.347031 Z M 15.668469 28.347031 " transform="matrix(1, 0, 0, -1, 14.312, 84.515)"/>
<g fill="rgb(0%, 0%, 0%)" fill-opacity="1">
<use xlink:href="#glyph-0-0" x="3.32" y="94.843"/>
</g>
<g fill="rgb(0%, 0%, 0%)" fill-opacity="1">
<use xlink:href="#glyph-0-1" x="141.849" y="94.843"/>
</g>
<g fill="rgb(0%, 0%, 0%)" fill-opacity="1">
<use xlink:href="#glyph-0-2" x="177.282" y="10.129"/>
</g>
<g fill="rgb(0%, 0%, 0%)" fill-opacity="1">
<use xlink:href="#glyph-0-3" x="37.923" y="10.129"/>
</g>
<g fill="rgb(0%, 0%, 0%)" fill-opacity="1">
<use xlink:href="#glyph-0-4" x="81.611" y="66.496"/>
</g>
<g fill="rgb(0%, 0%, 0%)" fill-opacity="1">
<use xlink:href="#glyph-0-5" x="156.023" y="59.572"/>
</g>
<g fill="rgb(0%, 0%, 0%)" fill-opacity="1">
<use xlink:href="#glyph-0-6" x="96.308" y="10.128"/>
</g>
<g fill="rgb(0%, 0%, 0%)" fill-opacity="1">
<use xlink:href="#glyph-0-7" x="60.182" y="94.843"/>
</g>
<g fill="rgb(0%, 0%, 0%)" fill-opacity="1">
<use xlink:href="#glyph-0-8" x="17.217" y="59.572"/>
</g>
</svg>
