<?xml version="1.0" encoding="UTF-8"?>
<svg xmlns="http://www.w3.org/2000/svg" xmlns:xlink="http://www.w3.org/1999/xlink" width="106.792pt" height="85.533pt" viewBox="0 0 106.792 85.533" version="1.1">
<defs>
<clipPath id="clip1">
  <path d="M 28 71 L 44 71 L 44 85.53125 L 28 85.53125 Z M 28 71 "/>
</clipPath>
<clipPath id="clip2">
  <path d="M 12 73 L 27 73 L 27 85.53125 L 12 85.53125 Z M 12 73 "/>
</clipPath>
<clipPath id="clip3">
  <path d="M 92 57 L 106.792969 57 L 106.792969 72 L 92 72 Z M 92 57 "/>
</clipPath>
<clipPath id="clip4">
  <path d="M 93 37 L 106.792969 37 L 106.792969 52 L 93 52 Z M 93 37 "/>
</clipPath>
<clipPath id="clip5">
  <path d="M 92 16 L 106.792969 16 L 106.792969 32 L 92 32 Z M 92 16 "/>
</clipPath>
<clipPath id="clip6">
  <path d="M 0 31 L 106.792969 31 L 106.792969 33 L 0 33 Z M 0 31 "/>
</clipPath>
<clipPath id="clip7">
  <path d="M 0 53 L 106.792969 53 L 106.792969 54 L 0 54 Z M 0 53 "/>
</clipPath>
<clipPath id="clip8">
  <path d="M 42 0 L 44 0 L 44 85.53125 L 42 85.53125 Z M 42 0 "/>
</clipPath>
<clipPath id="clip9">
  <path d="M 74 0 L 75 0 L 75 85.53125 L 74 85.53125 Z M 74 0 "/>
</clipPath>
</defs>
<g id="surface1">
<path style=" stroke:none;fill-rule:nonzero;fill:rgb(0%,39.213562%,0%);fill-opacity:0.1;" d="M 42.765625 32.140625 L 74.652344 32.140625 L 74.652344 53.398438 L 42.765625 53.398438 Z M 42.765625 32.140625 "/>
<path style="fill-rule:nonzero;fill:rgb(0%,0%,0%);fill-opacity:1;stroke-width:0.3985;stroke-linecap:butt;stroke-linejoin:miter;stroke:rgb(0%,0%,0%);stroke-opacity:1;stroke-miterlimit:10;" d="M 9.118187 68.522281 C 9.118187 69.3465 8.450219 70.018375 7.622094 70.018375 C 6.797875 70.018375 6.129906 69.3465 6.129906 68.522281 C 6.129906 67.698063 6.797875 67.030094 7.622094 67.030094 C 8.450219 67.030094 9.118187 67.698063 9.118187 68.522281 Z M 9.118187 68.522281 " transform="matrix(1,0,0,-1,0.249,85.284)"/>
<path style="fill-rule:nonzero;fill:rgb(0%,0%,0%);fill-opacity:1;stroke-width:0.3985;stroke-linecap:butt;stroke-linejoin:miter;stroke:rgb(0%,0%,0%);stroke-opacity:1;stroke-miterlimit:10;" d="M 20.735375 60.69025 C 20.735375 61.514469 20.0635 62.182438 19.239281 62.182438 C 18.415063 62.182438 17.747094 61.514469 17.747094 60.69025 C 17.747094 59.862125 18.415063 59.194156 19.239281 59.194156 C 20.0635 59.194156 20.735375 59.862125 20.735375 60.69025 Z M 20.735375 60.69025 " transform="matrix(1,0,0,-1,0.249,85.284)"/>
<path style="fill-rule:nonzero;fill:rgb(0%,0%,0%);fill-opacity:1;stroke-width:0.3985;stroke-linecap:butt;stroke-linejoin:miter;stroke:rgb(0%,0%,0%);stroke-opacity:1;stroke-miterlimit:10;" d="M 29.918969 66.901188 C 29.918969 67.729313 29.251 68.397281 28.422875 68.397281 C 27.598656 68.397281 26.930688 67.729313 26.930688 66.901188 C 26.930688 66.076969 27.598656 65.409 28.422875 65.409 C 29.251 65.409 29.918969 66.076969 29.918969 66.901188 Z M 29.918969 66.901188 " transform="matrix(1,0,0,-1,0.249,85.284)"/>
<path style="fill-rule:nonzero;fill:rgb(0%,0%,0%);fill-opacity:1;stroke-width:0.3985;stroke-linecap:butt;stroke-linejoin:miter;stroke:rgb(0%,0%,0%);stroke-opacity:1;stroke-miterlimit:10;" d="M 52.340844 57.448063 C 52.340844 58.272281 51.672875 58.94025 50.84475 58.94025 C 50.020531 58.94025 49.352562 58.272281 49.352562 57.448063 C 49.352562 56.619938 50.020531 55.951969 50.84475 55.951969 C 51.672875 55.951969 52.340844 56.619938 52.340844 57.448063 Z M 52.340844 57.448063 " transform="matrix(1,0,0,-1,0.249,85.284)"/>
<path style="fill-rule:nonzero;fill:rgb(0%,0%,0%);fill-opacity:1;stroke-width:0.3985;stroke-linecap:butt;stroke-linejoin:miter;stroke:rgb(0%,0%,0%);stroke-opacity:1;stroke-miterlimit:10;" d="M 66.65725 56.905094 C 66.65725 57.733219 65.989281 58.401188 65.165063 58.401188 C 64.340844 58.401188 63.668969 57.733219 63.668969 56.905094 C 63.668969 56.080875 64.340844 55.412906 65.165063 55.412906 C 65.989281 55.412906 66.65725 56.080875 66.65725 56.905094 Z M 66.65725 56.905094 " transform="matrix(1,0,0,-1,0.249,85.284)"/>
<path style="fill-rule:nonzero;fill:rgb(0%,0%,0%);fill-opacity:1;stroke-width:0.3985;stroke-linecap:butt;stroke-linejoin:miter;stroke:rgb(0%,0%,0%);stroke-opacity:1;stroke-miterlimit:10;" d="M 70.981469 68.25275 C 70.981469 69.076969 70.3135 69.748844 69.485375 69.748844 C 68.661156 69.748844 67.993188 69.076969 67.993188 68.25275 C 67.993188 67.428531 68.661156 66.756656 69.485375 66.756656 C 70.3135 66.756656 70.981469 67.428531 70.981469 68.25275 Z M 70.981469 68.25275 " transform="matrix(1,0,0,-1,0.249,85.284)"/>
<path style="fill-rule:nonzero;fill:rgb(0%,0%,0%);fill-opacity:1;stroke-width:0.3985;stroke-linecap:butt;stroke-linejoin:miter;stroke:rgb(0%,0%,0%);stroke-opacity:1;stroke-miterlimit:10;" d="M 55.852562 42.858219 C 55.852562 43.686344 55.184594 44.354313 54.356469 44.354313 C 53.53225 44.354313 52.864281 43.686344 52.864281 42.858219 C 52.864281 42.034 53.53225 41.366031 54.356469 41.366031 C 55.184594 41.366031 55.852562 42.034 55.852562 42.858219 Z M 55.852562 42.858219 " transform="matrix(1,0,0,-1,0.249,85.284)"/>
<path style="fill-rule:nonzero;fill:rgb(0%,0%,0%);fill-opacity:1;stroke-width:0.3985;stroke-linecap:butt;stroke-linejoin:miter;stroke:rgb(0%,0%,0%);stroke-opacity:1;stroke-miterlimit:10;" d="M 67.46975 37.455875 C 67.46975 38.280094 66.801781 38.951969 65.973656 38.951969 C 65.149438 38.951969 64.481469 38.280094 64.481469 37.455875 C 64.481469 36.631656 65.149438 35.963688 65.973656 35.963688 C 66.801781 35.963688 67.46975 36.631656 67.46975 37.455875 Z M 67.46975 37.455875 " transform="matrix(1,0,0,-1,0.249,85.284)"/>
<path style="fill-rule:nonzero;fill:rgb(0%,0%,0%);fill-opacity:1;stroke-width:0.3985;stroke-linecap:butt;stroke-linejoin:miter;stroke:rgb(0%,0%,0%);stroke-opacity:1;stroke-miterlimit:10;" d="M 49.098656 36.37775 C 49.098656 37.201969 48.430687 37.869938 47.606469 37.869938 C 46.778344 37.869938 46.110375 37.201969 46.110375 36.37775 C 46.110375 35.549625 46.778344 34.881656 47.606469 34.881656 C 48.430687 34.881656 49.098656 35.549625 49.098656 36.37775 Z M 49.098656 36.37775 " transform="matrix(1,0,0,-1,0.249,85.284)"/>
<path style=" stroke:none;fill-rule:nonzero;fill:rgb(0%,0%,0%);fill-opacity:1;" d="M 37.460938 78.894531 C 37.460938 78.070313 36.792969 77.398438 35.96875 77.398438 C 35.140625 77.398438 34.472656 78.070313 34.472656 78.894531 C 34.472656 79.71875 35.140625 80.386719 35.96875 80.386719 C 36.792969 80.386719 37.460938 79.71875 37.460938 78.894531 Z M 37.460938 78.894531 "/>
<g clip-path="url(#clip1)" clip-rule="nonzero">
<path style="fill:none;stroke-width:0.3985;stroke-linecap:butt;stroke-linejoin:miter;stroke:rgb(0%,0%,0%);stroke-opacity:1;stroke-miterlimit:10;" d="M 37.211937 6.389469 C 37.211937 7.213688 36.543969 7.885563 35.71975 7.885563 C 34.891625 7.885563 34.223656 7.213688 34.223656 6.389469 C 34.223656 5.56525 34.891625 4.897281 35.71975 4.897281 C 36.543969 4.897281 37.211937 5.56525 37.211937 6.389469 Z M 37.211937 6.389469 " transform="matrix(1,0,0,-1,0.249,85.284)"/>
</g>
<path style=" stroke:none;fill-rule:nonzero;fill:rgb(0%,0%,0%);fill-opacity:1;" d="M 21.253906 81.054688 C 21.253906 80.230469 20.585938 79.5625 19.757813 79.5625 C 18.933594 79.5625 18.265625 80.230469 18.265625 81.054688 C 18.265625 81.878906 18.933594 82.550781 19.757813 82.550781 C 20.585938 82.550781 21.253906 81.878906 21.253906 81.054688 Z M 21.253906 81.054688 "/>
<g clip-path="url(#clip2)" clip-rule="nonzero">
<path style="fill:none;stroke-width:0.3985;stroke-linecap:butt;stroke-linejoin:miter;stroke:rgb(0%,0%,0%);stroke-opacity:1;stroke-miterlimit:10;" d="M 21.004906 4.229313 C 21.004906 5.053531 20.336938 5.7215 19.508813 5.7215 C 18.684594 5.7215 18.016625 5.053531 18.016625 4.229313 C 18.016625 3.405094 18.684594 2.733219 19.508813 2.733219 C 20.336938 2.733219 21.004906 3.405094 21.004906 4.229313 Z M 21.004906 4.229313 " transform="matrix(1,0,0,-1,0.249,85.284)"/>
</g>
<path style="fill-rule:nonzero;fill:rgb(0%,0%,0%);fill-opacity:1;stroke-width:0.3985;stroke-linecap:butt;stroke-linejoin:miter;stroke:rgb(0%,0%,0%);stroke-opacity:1;stroke-miterlimit:10;" d="M 12.899437 18.276188 C 12.899437 19.100406 12.231469 19.772281 11.40725 19.772281 C 10.579125 19.772281 9.911156 19.100406 9.911156 18.276188 C 9.911156 17.451969 10.579125 16.780094 11.40725 16.780094 C 12.231469 16.780094 12.899437 17.451969 12.899437 18.276188 Z M 12.899437 18.276188 " transform="matrix(1,0,0,-1,0.249,85.284)"/>
<path style="fill-rule:nonzero;fill:rgb(0%,0%,0%);fill-opacity:1;stroke-width:0.3985;stroke-linecap:butt;stroke-linejoin:miter;stroke:rgb(0%,0%,0%);stroke-opacity:1;stroke-miterlimit:10;" d="M 27.758813 22.600406 C 27.758813 23.424625 27.090844 24.092594 26.262719 24.092594 C 25.4385 24.092594 24.770531 23.424625 24.770531 22.600406 C 24.770531 21.772281 25.4385 21.104313 26.262719 21.104313 C 27.090844 21.104313 27.758813 21.772281 27.758813 22.600406 Z M 27.758813 22.600406 " transform="matrix(1,0,0,-1,0.249,85.284)"/>
<path style="fill-rule:nonzero;fill:rgb(0%,0%,0%);fill-opacity:1;stroke-width:0.3985;stroke-linecap:butt;stroke-linejoin:miter;stroke:rgb(0%,0%,0%);stroke-opacity:1;stroke-miterlimit:10;" d="M 22.754906 42.518375 C 22.754906 43.342594 22.083031 44.010563 21.258813 44.010563 C 20.434594 44.010563 19.762719 43.342594 19.762719 42.518375 C 19.762719 41.694156 20.434594 41.022281 21.258813 41.022281 C 22.083031 41.022281 22.754906 41.694156 22.754906 42.518375 Z M 22.754906 42.518375 " transform="matrix(1,0,0,-1,0.249,85.284)"/>
<path style="fill-rule:nonzero;fill:rgb(0%,0%,0%);fill-opacity:1;stroke-width:0.3985;stroke-linecap:butt;stroke-linejoin:miter;stroke:rgb(0%,0%,0%);stroke-opacity:1;stroke-miterlimit:10;" d="M 36.672875 38.268375 C 36.672875 39.092594 36.004906 39.760563 35.176781 39.760563 C 34.352562 39.760563 33.684594 39.092594 33.684594 38.268375 C 33.684594 37.44025 34.352562 36.772281 35.176781 36.772281 C 36.004906 36.772281 36.672875 37.44025 36.672875 38.268375 Z M 36.672875 38.268375 " transform="matrix(1,0,0,-1,0.249,85.284)"/>
<path style="fill-rule:nonzero;fill:rgb(0%,0%,0%);fill-opacity:1;stroke-width:0.3985;stroke-linecap:butt;stroke-linejoin:miter;stroke:rgb(0%,0%,0%);stroke-opacity:1;stroke-miterlimit:10;" d="M 59.364281 20.436344 C 59.364281 21.264469 58.696312 21.932438 57.872094 21.932438 C 57.043969 21.932438 56.376 21.264469 56.376 20.436344 C 56.376 19.612125 57.043969 18.944156 57.872094 18.944156 C 58.696312 18.944156 59.364281 19.612125 59.364281 20.436344 Z M 59.364281 20.436344 " transform="matrix(1,0,0,-1,0.249,85.284)"/>
<path style="fill-rule:nonzero;fill:rgb(0%,0%,0%);fill-opacity:1;stroke-width:0.3985;stroke-linecap:butt;stroke-linejoin:miter;stroke:rgb(0%,0%,0%);stroke-opacity:1;stroke-miterlimit:10;" d="M 62.067406 13.682438 C 62.067406 14.510563 61.395531 15.178531 60.571312 15.178531 C 59.747094 15.178531 59.079125 14.510563 59.079125 13.682438 C 59.079125 12.858219 59.747094 12.19025 60.571312 12.19025 C 61.395531 12.19025 62.067406 12.858219 62.067406 13.682438 Z M 62.067406 13.682438 " transform="matrix(1,0,0,-1,0.249,85.284)"/>
<path style="fill-rule:nonzero;fill:rgb(0%,0%,0%);fill-opacity:1;stroke-width:0.3985;stroke-linecap:butt;stroke-linejoin:miter;stroke:rgb(0%,0%,0%);stroke-opacity:1;stroke-miterlimit:10;" d="M 71.790063 19.358219 C 71.790063 20.182438 71.122094 20.850406 70.297875 20.850406 C 69.46975 20.850406 68.801781 20.182438 68.801781 19.358219 C 68.801781 18.530094 69.46975 17.862125 70.297875 17.862125 C 71.122094 17.862125 71.790063 18.530094 71.790063 19.358219 Z M 71.790063 19.358219 " transform="matrix(1,0,0,-1,0.249,85.284)"/>
<path style="fill-rule:nonzero;fill:rgb(0%,0%,0%);fill-opacity:1;stroke-width:0.3985;stroke-linecap:butt;stroke-linejoin:miter;stroke:rgb(0%,0%,0%);stroke-opacity:1;stroke-miterlimit:10;" d="M 84.758813 12.604313 C 84.758813 13.428531 84.090844 14.0965 83.262719 14.0965 C 82.4385 14.0965 81.770531 13.428531 81.770531 12.604313 C 81.770531 11.776188 82.4385 11.108219 83.262719 11.108219 C 84.090844 11.108219 84.758813 11.776188 84.758813 12.604313 Z M 84.758813 12.604313 " transform="matrix(1,0,0,-1,0.249,85.284)"/>
<path style="fill-rule:nonzero;fill:rgb(0%,0%,0%);fill-opacity:1;stroke-width:0.3985;stroke-linecap:butt;stroke-linejoin:miter;stroke:rgb(0%,0%,0%);stroke-opacity:1;stroke-miterlimit:10;" d="M 98.805688 12.604313 C 98.805688 13.428531 98.137719 14.0965 97.309594 14.0965 C 96.485375 14.0965 95.817406 13.428531 95.817406 12.604313 C 95.817406 11.776188 96.485375 11.108219 97.309594 11.108219 C 98.137719 11.108219 98.805688 11.776188 98.805688 12.604313 Z M 98.805688 12.604313 " transform="matrix(1,0,0,-1,0.249,85.284)"/>
<path style=" stroke:none;fill-rule:nonzero;fill:rgb(0%,0%,0%);fill-opacity:1;" d="M 100.945313 64.578125 C 100.945313 63.75 100.277344 63.082031 99.449219 63.082031 C 98.625 63.082031 97.957031 63.75 97.957031 64.578125 C 97.957031 65.402344 98.625 66.070313 99.449219 66.070313 C 100.277344 66.070313 100.945313 65.402344 100.945313 64.578125 Z M 100.945313 64.578125 "/>
<g clip-path="url(#clip3)" clip-rule="nonzero">
<path style="fill:none;stroke-width:0.3985;stroke-linecap:butt;stroke-linejoin:miter;stroke:rgb(0%,0%,0%);stroke-opacity:1;stroke-miterlimit:10;" d="M 100.696313 20.705875 C 100.696313 21.534 100.028344 22.201969 99.200219 22.201969 C 98.376 22.201969 97.708031 21.534 97.708031 20.705875 C 97.708031 19.881656 98.376 19.213688 99.200219 19.213688 C 100.028344 19.213688 100.696313 19.881656 100.696313 20.705875 Z M 100.696313 20.705875 " transform="matrix(1,0,0,-1,0.249,85.284)"/>
</g>
<path style="fill-rule:nonzero;fill:rgb(0%,0%,0%);fill-opacity:1;stroke-width:0.3985;stroke-linecap:butt;stroke-linejoin:miter;stroke:rgb(0%,0%,0%);stroke-opacity:1;stroke-miterlimit:10;" d="M 91.78225 25.838688 C 91.78225 26.666813 91.114281 27.334781 90.286156 27.334781 C 89.461938 27.334781 88.793969 26.666813 88.793969 25.838688 C 88.793969 25.014469 89.461938 24.3465 90.286156 24.3465 C 91.114281 24.3465 91.78225 25.014469 91.78225 25.838688 Z M 91.78225 25.838688 " transform="matrix(1,0,0,-1,0.249,85.284)"/>
<path style="fill-rule:nonzero;fill:rgb(0%,0%,0%);fill-opacity:1;stroke-width:0.3985;stroke-linecap:butt;stroke-linejoin:miter;stroke:rgb(0%,0%,0%);stroke-opacity:1;stroke-miterlimit:10;" d="M 81.516625 39.076969 C 81.516625 39.901188 80.848656 40.573063 80.020531 40.573063 C 79.196313 40.573063 78.528344 39.901188 78.528344 39.076969 C 78.528344 38.25275 79.196313 37.584781 80.020531 37.584781 C 80.848656 37.584781 81.516625 38.25275 81.516625 39.076969 Z M 81.516625 39.076969 " transform="matrix(1,0,0,-1,0.249,85.284)"/>
<path style="fill-rule:nonzero;fill:rgb(0%,0%,0%);fill-opacity:1;stroke-width:0.3985;stroke-linecap:butt;stroke-linejoin:miter;stroke:rgb(0%,0%,0%);stroke-opacity:1;stroke-miterlimit:10;" d="M 85.836938 47.7215 C 85.836938 48.545719 85.168969 49.217594 84.34475 49.217594 C 83.520531 49.217594 82.848656 48.545719 82.848656 47.7215 C 82.848656 46.897281 83.520531 46.229313 84.34475 46.229313 C 85.168969 46.229313 85.836938 46.897281 85.836938 47.7215 Z M 85.836938 47.7215 " transform="matrix(1,0,0,-1,0.249,85.284)"/>
<path style=" stroke:none;fill-rule:nonzero;fill:rgb(0%,0%,0%);fill-opacity:1;" d="M 101.753906 44.585938 C 101.753906 43.761719 101.085938 43.089844 100.261719 43.089844 C 99.4375 43.089844 98.765625 43.761719 98.765625 44.585938 C 98.765625 45.410156 99.4375 46.082031 100.261719 46.082031 C 101.085938 46.082031 101.753906 45.410156 101.753906 44.585938 Z M 101.753906 44.585938 "/>
<g clip-path="url(#clip4)" clip-rule="nonzero">
<path style="fill:none;stroke-width:0.3985;stroke-linecap:butt;stroke-linejoin:miter;stroke:rgb(0%,0%,0%);stroke-opacity:1;stroke-miterlimit:10;" d="M 101.504906 40.698063 C 101.504906 41.522281 100.836938 42.194156 100.012719 42.194156 C 99.1885 42.194156 98.516625 41.522281 98.516625 40.698063 C 98.516625 39.873844 99.1885 39.201969 100.012719 39.201969 C 100.836938 39.201969 101.504906 39.873844 101.504906 40.698063 Z M 101.504906 40.698063 " transform="matrix(1,0,0,-1,0.249,85.284)"/>
</g>
<path style=" stroke:none;fill-rule:nonzero;fill:rgb(0%,0%,0%);fill-opacity:1;" d="M 100.945313 24.054688 C 100.945313 23.230469 100.277344 22.558594 99.449219 22.558594 C 98.625 22.558594 97.957031 23.230469 97.957031 24.054688 C 97.957031 24.878906 98.625 25.550781 99.449219 25.550781 C 100.277344 25.550781 100.945313 24.878906 100.945313 24.054688 Z M 100.945313 24.054688 "/>
<g clip-path="url(#clip5)" clip-rule="nonzero">
<path style="fill:none;stroke-width:0.3985;stroke-linecap:butt;stroke-linejoin:miter;stroke:rgb(0%,0%,0%);stroke-opacity:1;stroke-miterlimit:10;" d="M 100.696313 61.229313 C 100.696313 62.053531 100.028344 62.725406 99.200219 62.725406 C 98.376 62.725406 97.708031 62.053531 97.708031 61.229313 C 97.708031 60.405094 98.376 59.733219 99.200219 59.733219 C 100.028344 59.733219 100.696313 60.405094 100.696313 61.229313 Z M 100.696313 61.229313 " transform="matrix(1,0,0,-1,0.249,85.284)"/>
</g>
<path style="fill-rule:nonzero;fill:rgb(0%,0%,0%);fill-opacity:1;stroke-width:0.3985;stroke-linecap:butt;stroke-linejoin:miter;stroke:rgb(0%,0%,0%);stroke-opacity:1;stroke-miterlimit:10;" d="M 98.266625 76.088688 C 98.266625 76.912906 97.59475 77.580875 96.770531 77.580875 C 95.946313 77.580875 95.278344 76.912906 95.278344 76.088688 C 95.278344 75.260563 95.946313 74.592594 96.770531 74.592594 C 97.59475 74.592594 98.266625 75.260563 98.266625 76.088688 Z M 98.266625 76.088688 " transform="matrix(1,0,0,-1,0.249,85.284)"/>
<path style="fill-rule:nonzero;fill:rgb(100%,0%,0%);fill-opacity:1;stroke-width:0.3985;stroke-linecap:butt;stroke-linejoin:miter;stroke:rgb(100%,0%,0%);stroke-opacity:1;stroke-miterlimit:10;" d="M 55.852562 42.858219 C 55.852562 43.686344 55.184594 44.354313 54.356469 44.354313 C 53.53225 44.354313 52.864281 43.686344 52.864281 42.858219 C 52.864281 42.034 53.53225 41.366031 54.356469 41.366031 C 55.184594 41.366031 55.852562 42.034 55.852562 42.858219 Z M 55.852562 42.858219 " transform="matrix(1,0,0,-1,0.249,85.284)"/>
<path style="fill-rule:nonzero;fill:rgb(100%,0%,0%);fill-opacity:1;stroke-width:0.3985;stroke-linecap:butt;stroke-linejoin:miter;stroke:rgb(100%,0%,0%);stroke-opacity:1;stroke-miterlimit:10;" d="M 67.46975 37.455875 C 67.46975 38.280094 66.801781 38.951969 65.973656 38.951969 C 65.149438 38.951969 64.481469 38.280094 64.481469 37.455875 C 64.481469 36.631656 65.149438 35.963688 65.973656 35.963688 C 66.801781 35.963688 67.46975 36.631656 67.46975 37.455875 Z M 67.46975 37.455875 " transform="matrix(1,0,0,-1,0.249,85.284)"/>
<path style="fill-rule:nonzero;fill:rgb(100%,0%,0%);fill-opacity:1;stroke-width:0.3985;stroke-linecap:butt;stroke-linejoin:miter;stroke:rgb(100%,0%,0%);stroke-opacity:1;stroke-miterlimit:10;" d="M 49.098656 36.37775 C 49.098656 37.201969 48.430687 37.869938 47.606469 37.869938 C 46.778344 37.869938 46.110375 37.201969 46.110375 36.37775 C 46.110375 35.549625 46.778344 34.881656 47.606469 34.881656 C 48.430687 34.881656 49.098656 35.549625 49.098656 36.37775 Z M 49.098656 36.37775 " transform="matrix(1,0,0,-1,0.249,85.284)"/>
<g clip-path="url(#clip6)" clip-rule="nonzero">
<path style="fill:none;stroke-width:0.49814;stroke-linecap:round;stroke-linejoin:miter;stroke:rgb(0%,0%,0%);stroke-opacity:1;stroke-dasharray:0.99628,1.74348;stroke-miterlimit:10;" d="M 0.001 53.147281 L 106.293969 53.147281 " transform="matrix(1,0,0,-1,0.249,85.284)"/>
</g>
<g clip-path="url(#clip7)" clip-rule="nonzero">
<path style="fill:none;stroke-width:0.49814;stroke-linecap:round;stroke-linejoin:miter;stroke:rgb(0%,0%,0%);stroke-opacity:1;stroke-dasharray:0.99628,1.74348;stroke-miterlimit:10;" d="M 0.001 31.889469 L 106.293969 31.889469 " transform="matrix(1,0,0,-1,0.249,85.284)"/>
</g>
<g clip-path="url(#clip8)" clip-rule="nonzero">
<path style="fill:none;stroke-width:0.49814;stroke-linecap:round;stroke-linejoin:miter;stroke:rgb(0%,0%,0%);stroke-opacity:1;stroke-dasharray:0.99628,1.74348;stroke-miterlimit:10;" d="M 42.516625 -0.00115625 L 42.516625 85.034 " transform="matrix(1,0,0,-1,0.249,85.284)"/>
</g>
<g clip-path="url(#clip9)" clip-rule="nonzero">
<path style="fill:none;stroke-width:0.49814;stroke-linecap:round;stroke-linejoin:miter;stroke:rgb(0%,0%,0%);stroke-opacity:1;stroke-dasharray:0.99628,1.74348;stroke-miterlimit:10;" d="M 74.40725 -0.00115625 L 74.40725 85.034 " transform="matrix(1,0,0,-1,0.249,85.284)"/>
</g>
</g>
</svg>
